<?xml version="1.0" encoding="UTF-8"?>
<svg width="16px" height="16px" viewBox="0 0 16 16" version="1.1" xmlns="http://www.w3.org/2000/svg" xmlns:xlink="http://www.w3.org/1999/xlink">
    <!-- Generator: Sketch 46.1 (44463) - http://www.bohemiancoding.com/sketch -->
    <title>adjust</title>
    <desc>Created with Sketch.</desc>
    <defs></defs>
    <g id="Page-1" stroke="none" stroke-width="1" fill="none" fill-rule="evenodd">
        <g id="Artboard" transform="translate(-136.000000, -378.000000)">
            <g id="adjust" transform="translate(144.000000, 386.000000) rotate(90.000000) translate(-144.000000, -386.000000) translate(136.000000, 378.000000)">
                <rect id="bounds" fill-opacity="0" fill="#EEEEEE" x="0" y="0" width="16" height="16"></rect>
                <path d="M11,2 L11,6 L9,6 L9,16 L7,16 L7,6 L5,6 L5,2 L7,2 L7,0 L9,0 L9,2 L11,2 Z M10,5 L10,3 L6,3 L6,5 L10,5 Z M4,0 L4,10 L6,10 L6,14 L4,14 L4,16 L2,16 L2,14 L0,14 L0,10 L2,10 L2,0 L4,0 Z M5,11 L1,11 L1,13 L5,13 L5,11 Z M14,0 L14,7 L16,7 L16,11 L14,11 L14,16 L12,16 L12,11 L10,11 L10,7 L12,7 L12,0 L14,0 Z M15,8 L11,8 L11,10 L12,10 L14,10 L15,10 L15,8 Z" id="icon" fill="#000000" fill-rule="nonzero"></path>
            </g>
        </g>
    </g>
</svg>