<?xml version="1.0" encoding="UTF-8"?>
<svg width="16px" height="14px" viewBox="0 0 16 14" version="1.1" xmlns="http://www.w3.org/2000/svg" xmlns:xlink="http://www.w3.org/1999/xlink">
    <!-- Generator: Sketch 46.1 (44463) - http://www.bohemiancoding.com/sketch -->
    <title>archieve</title>
    <desc>Created with Sketch.</desc>
    <defs></defs>
    <g id="Page-1" stroke="none" stroke-width="1" fill="none" fill-rule="evenodd">
        <g id="Artboard" transform="translate(-168.000000, -379.000000)">
            <g id="archieve" transform="translate(168.000000, 378.000000)">
                <rect id="bounds" fill-opacity="0" fill="#EEEEEE" x="0" y="0" width="16" height="16"></rect>
                <path d="M1,1 L0,1 L0,2 L0,5 L1,5 L1,6 L1,14 L1,15 L2,15 L14,15 L15,15 L15,14 L15,6 L15,5 L16,5 L16,2 L16,1 L15,1 L1,1 Z M14,14 L2,14 L2,6 L14,6 L14,14 Z M15,4 L1,4 L1,2 L15,2 L15,4 Z M6,8 L10,8 L10,10 L6,10 L6,8 Z" id="icon" fill="#000000" fill-rule="nonzero"></path>
            </g>
        </g>
    </g>
</svg>