<?xml version="1.0" encoding="UTF-8"?>
<svg width="16px" height="8px" viewBox="0 0 16 8" version="1.1" xmlns="http://www.w3.org/2000/svg" xmlns:xlink="http://www.w3.org/1999/xlink">
    <!-- Generator: Sketch 46.1 (44463) - http://www.bohemiancoding.com/sketch -->
    <title>arrow-h</title>
    <desc>Created with Sketch.</desc>
    <defs></defs>
    <g id="Page-1" stroke="none" stroke-width="1" fill="none" fill-rule="evenodd">
        <g id="Artboard" transform="translate(-168.000000, -158.000000)">
            <g id="arrow-h" transform="translate(168.000000, 154.000000)">
                <rect id="bounds" fill-opacity="0" fill="#EEEEEE" x="0" y="0" width="16" height="16"></rect>
                <polygon id="icon" fill="#000000" fill-rule="nonzero" points="4 4 3 4 3 5 2 5 2 6 1 6 1 7 0 7 0 9 1 9 1 10 2 10 2 11 3 11 3 12 4 12 4 9 12 9 12 12 13 12 13 11 14 11 14 10 15 10 15 9 16 9 16 7 15 7 15 6 14 6 14 5 13 5 13 4 12 4 12 7 4 7"></polygon>
            </g>
        </g>
    </g>
</svg>