<?xml version="1.0" encoding="UTF-8"?>
<svg width="16px" height="16px" viewBox="0 0 16 16" version="1.1" xmlns="http://www.w3.org/2000/svg" xmlns:xlink="http://www.w3.org/1999/xlink">
    <!-- Generator: Sketch 46.1 (44463) - http://www.bohemiancoding.com/sketch -->
    <title>bookmark</title>
    <desc>Created with Sketch.</desc>
    <defs></defs>
    <g id="Page-1" stroke="none" stroke-width="1" fill="none" fill-rule="evenodd">
        <g id="Artboard" transform="translate(-200.000000, -346.000000)">
            <g id="bookmark" transform="translate(200.000000, 346.000000)">
                <rect id="bounds" fill-opacity="0" fill="#EEEEEE" x="0" y="0" width="16" height="16"></rect>
                <path d="M7,1 L1,1 L1,7 L0,7 L0,1 L0,0 L1,0 L7,0 L7,1 Z M1,7 L2,7 L2,8 L1,8 L1,7 Z M2,8 L3,8 L3,9 L2,9 L2,8 Z M3,9 L4,9 L4,10 L3,10 L3,9 Z M4,10 L5,10 L5,11 L4,11 L4,10 Z M5,11 L6,11 L6,12 L5,12 L5,11 Z M6,12 L7,12 L7,13 L6,13 L6,12 Z M7,13 L8,13 L8,14 L7,14 L7,13 Z M7,1 L8,1 L8,2 L7,2 L7,1 Z M8,2 L9,2 L9,3 L8,3 L8,2 Z M9,3 L10,3 L10,4 L9,4 L9,3 Z M10,4 L11,4 L11,5 L10,5 L10,4 Z M11,5 L12,5 L12,6 L11,6 L11,5 Z M12,6 L13,6 L13,7 L12,7 L12,6 Z M13,7 L14,7 L14,8 L13,8 L13,7 Z M15,9 L16,9 L16,10 L15,10 L10,10 L10,15 L10,16 L9,16 L9,15 L8,15 L8,14 L9,14 L9,10 L9,9 L14,9 L14,8 L15,8 L15,9 Z M2,2 L5,2 L5,5 L2,5 L2,2 Z" id="icon" fill="#000000" fill-rule="nonzero"></path>
            </g>
        </g>
    </g>
</svg>