<?xml version="1.0" encoding="UTF-8"?>
<svg width="14px" height="16px" viewBox="0 0 14 16" version="1.1" xmlns="http://www.w3.org/2000/svg" xmlns:xlink="http://www.w3.org/1999/xlink">
    <!-- Generator: Sketch 46.1 (44463) - http://www.bohemiancoding.com/sketch -->
    <title>book</title>
    <desc>Created with Sketch.</desc>
    <defs></defs>
    <g id="Page-1" stroke="none" stroke-width="1" fill="none" fill-rule="evenodd">
        <g id="Artboard" transform="translate(-169.000000, -442.000000)">
            <g id="book" transform="translate(168.000000, 442.000000)">
                <rect id="bounds" fill-opacity="0" fill="#EEEEEE" x="0" y="0" width="16" height="16"></rect>
                <path d="M2,0 L15,0 L15,1 L2,1 L2,0 Z M2,15 L15,15 L15,16 L2,16 L2,15 Z M14,1 L15,1 L15,15 L14,15 L14,1 Z M3,11 L14,11 L14,12 L3,12 L3,11 Z M1,12 L3,12 L3,13 L1,13 L1,12 Z M1,14 L3,14 L3,15 L1,15 L1,14 Z M1,13 L2,13 L2,14 L1,14 L1,13 Z M4,13 L14,13 L14,14 L4,14 L4,13 Z M1,1 L3,1 L3,12 L1,12 L1,1 Z" id="icon" fill="#000000"></path>
            </g>
        </g>
    </g>
</svg>