<?xml version="1.0" encoding="UTF-8"?>
<svg width="16px" height="14px" viewBox="0 0 16 14" version="1.1" xmlns="http://www.w3.org/2000/svg" xmlns:xlink="http://www.w3.org/1999/xlink">
    <!-- Generator: Sketch 46.1 (44463) - http://www.bohemiancoding.com/sketch -->
    <title>burger</title>
    <desc>Created with Sketch.</desc>
    <defs></defs>
    <g id="Page-1" stroke="none" stroke-width="1" fill="none" fill-rule="evenodd">
        <g id="Artboard" transform="translate(-168.000000, -411.000000)">
            <g id="burger" transform="translate(168.000000, 410.000000)">
                <rect id="bounds" fill-opacity="0" fill="#EEEEEE" x="0" y="0" width="16" height="16"></rect>
                <path d="M5,2 L5,1 L11,1 L11,2 L5,2 Z M11,3 L11,2 L13,2 L13,3 L11,3 Z M13,4 L13,3 L14,3 L14,4 L13,4 Z M14,6 L14,4 L15,4 L15,6 L14,6 Z M1,6 L1,4 L2,4 L2,6 L1,6 Z M2,4 L2,3 L3,3 L3,4 L2,4 Z M3,3 L3,2 L5,2 L5,3 L3,3 Z M1,15 L1,14 L14.999,14 L14.999,15 L1,15 Z M6,4 L6,3 L7,3 L7,4 L6,4 Z M8,6 L8,5 L9,5 L9,6 L8,6 Z M11,5 L11,4 L12,4 L12,5 L11,5 Z M16,8 L15,8 L15,9 L16,9 L16,11 L15,11 L15,12 L16,12 L16,14 L15,14 L15,13 L1,13 L1,14 L0,14 L0,12 L1,12 L1,11 L0,11 L0,9 L1,9 L1,8 L0,8 L0,6 L1,6 L1,7 L15,7 L15,6 L16,6 L16,8 Z M14,10 L14,9 L13,9 L13,10 L12,10 L12,11 L13,11 L13,10 L14,10 Z M9,10 L9,9 L8,9 L8,10 L7,10 L7,11 L8,11 L8,10 L9,10 Z M4,10 L4,9 L3,9 L3,10 L2,10 L2,11 L3,11 L3,10 L4,10 Z" id="icon" fill="#000000"></path>
            </g>
        </g>
    </g>
</svg>