<?xml version="1.0" encoding="UTF-8"?>
<svg width="16px" height="12px" viewBox="0 0 16 12" version="1.1" xmlns="http://www.w3.org/2000/svg" xmlns:xlink="http://www.w3.org/1999/xlink">
    <!-- Generator: Sketch 46.1 (44463) - http://www.bohemiancoding.com/sketch -->
    <title>camera</title>
    <desc>Created with Sketch.</desc>
    <defs></defs>
    <g id="Page-1" stroke="none" stroke-width="1" fill="none" fill-rule="evenodd">
        <g id="Artboard" transform="translate(-72.000000, -348.000000)">
            <g id="camera" transform="translate(72.000000, 346.000000)">
                <rect id="bounds" fill-opacity="0" fill="#EEEEEE" x="0" y="0" width="16" height="16"></rect>
                <path d="M10,12 L10,13 L15,13 L15,14 L1,14 L1,13 L6,13 L6,12 L10,12 Z M6,5 L10,5 L10,6 L6,6 L6,5 Z M4,7 L5,7 L5,11 L4,11 L4,7 Z M11,7 L12,7 L12,11 L11,11 L11,7 Z M15,4 L16,4 L16,13 L15,13 L15,4 Z M0,4 L1,4 L1,13 L0,13 L0,4 Z M11,4 L9,4 L1,4 L1,3 L9,3 L9,2 L13,2 L13,3 L15,3 L15,4 L13,4 L12,4 L11,4 Z M5,11 L6,11 L6,12 L5,12 L5,11 Z M5,6 L6,6 L6,7 L5,7 L5,6 Z M10,6 L11,6 L11,7 L10,7 L10,6 Z M10,11 L11,11 L11,12 L10,12 L10,11 Z M10,10 L9,10 L9,11 L7,11 L7,10 L6,10 L6,8 L7,8 L7,7 L9,7 L9,8 L10,8 L10,10 Z M12,5 L14,5 L14,7 L12,7 L12,5 Z" id="icon" fill="#000000" fill-rule="nonzero"></path>
            </g>
        </g>
    </g>
</svg>