<?xml version="1.0" encoding="UTF-8"?>
<svg width="16px" height="14px" viewBox="0 0 16 14" version="1.1" xmlns="http://www.w3.org/2000/svg" xmlns:xlink="http://www.w3.org/1999/xlink">
    <!-- Generator: Sketch 46.1 (44463) - http://www.bohemiancoding.com/sketch -->
    <title>chat-copy</title>
    <desc>Created with Sketch.</desc>
    <defs></defs>
    <g id="Page-1" stroke="none" stroke-width="1" fill="none" fill-rule="evenodd">
        <g id="Artboard" transform="translate(-72.000000, -443.000000)">
            <g id="chat-copy" transform="translate(72.000000, 442.000000)">
                <rect id="bounds" fill-opacity="0" fill="#EEEEEE" x="0" y="0" width="16" height="16"></rect>
                <path d="M11,5 L12,5 L12,6 L12,13 L11,13 L5,13 L5,12 L11,12 L11,6 L1,6 L1,12 L3,12 L3,14 L4,14 L4,15 L3,15 L2,15 L2,13 L0,13 L0,12 L0,6 L0,5 L11,5 Z M4,14 L4,13 L5,13 L5,14 L4,14 Z M15,1 L16,1 L16,2 L16,9 L15,9 L13,9 L13,8 L15,8 L15,2 L5,2 L5,4 L4,4 L4,2 L4,1 L15,1 Z" id="icon" fill="#000000"></path>
            </g>
        </g>
    </g>
</svg>