<?xml version="1.0" encoding="UTF-8"?>
<svg width="16px" height="10px" viewBox="0 0 16 10" version="1.1" xmlns="http://www.w3.org/2000/svg" xmlns:xlink="http://www.w3.org/1999/xlink">
    <!-- Generator: Sketch 46.1 (44463) - http://www.bohemiancoding.com/sketch -->
    <title>cloud</title>
    <desc>Created with Sketch.</desc>
    <defs></defs>
    <g id="Page-1" stroke="none" stroke-width="1" fill="none" fill-rule="evenodd">
        <g id="Artboard" transform="translate(-40.000000, -493.000000)">
            <g id="cloud" transform="translate(40.000000, 490.000000)">
                <rect id="bounds" fill-opacity="0" fill="#EEEEEE" x="0" y="0" width="16" height="16"></rect>
                <path d="M2,12 L14,12 L14,13 L2,13 L2,12 Z M1,11 L2,11 L2,12 L1,12 L1,11 Z M1,7 L2,7 L2,8 L1,8 L1,7 Z M14,11 L15,11 L15,12 L14,12 L14,11 Z M15,8 L16,8 L16,11 L15,11 L15,8 Z M0,8 L1,8 L1,11 L0,11 L0,8 Z M2,6 L4,6 L4,7 L2,7 L2,6 Z M4,5 L5,5 L5,7 L4,7 L4,5 Z M5,7 L6,7 L6,9 L5,9 L5,7 Z M5,4 L6,4 L6,5 L5,5 L5,4 Z M6,3 L11,3 L11,4 L6,4 L6,3 Z M11,4 L12,4 L12,5 L11,5 L11,4 Z M12,5 L13,5 L13,8 L12,8 L12,5 Z M11,8 L12,8 L12,9 L11,9 L11,8 Z M13,6 L14,6 L14,7 L13,7 L13,6 Z M14,7 L15,7 L15,8 L14,8 L14,7 Z" id="icon" fill="#000000"></path>
            </g>
        </g>
    </g>
</svg>