<?xml version="1.0" encoding="UTF-8"?>
<svg width="16px" height="14px" viewBox="0 0 16 14" version="1.1" xmlns="http://www.w3.org/2000/svg" xmlns:xlink="http://www.w3.org/1999/xlink">
    <!-- Generator: Sketch 46.1 (44463) - http://www.bohemiancoding.com/sketch -->
    <title>cloud-rain</title>
    <desc>Created with Sketch.</desc>
    <defs></defs>
    <g id="Page-1" stroke="none" stroke-width="1" fill="none" fill-rule="evenodd">
        <g id="Artboard" transform="translate(-104.000000, -491.000000)">
            <g id="cloud-rain" transform="translate(104.000000, 490.000000)">
                <rect id="bounds-copy" fill-opacity="0" fill="#EEEEEE" x="0" y="0" width="16" height="16"></rect>
                <path d="M2,10 L5,10 L5,11 L2,11 L2,10 Z M12,10 L14,10 L14,11 L12,11 L12,10 Z M10,10 L11,10 L11,12 L10,12 L10,10 Z M8,10 L9,10 L9,12 L8,12 L8,10 Z M6,10 L7,10 L7,12 L6,12 L6,10 Z M10,13 L11,13 L11,15 L10,15 L10,13 Z M8,13 L9,13 L9,15 L8,15 L8,13 Z M6,13 L7,13 L7,15 L6,15 L6,13 Z M1,9 L2,9 L2,10 L1,10 L1,9 Z M1,5 L2,5 L2,6 L1,6 L1,5 Z M14,9 L15,9 L15,10 L14,10 L14,9 Z M15,6 L16,6 L16,9 L15,9 L15,6 Z M0,6 L1,6 L1,9 L0,9 L0,6 Z M2,4 L4,4 L4,5 L2,5 L2,4 Z M4,3 L5,3 L5,5 L4,5 L4,3 Z M5,5 L6,5 L6,7 L5,7 L5,5 Z M5,2 L6,2 L6,3 L5,3 L5,2 Z M6,1 L11,1 L11,2 L6,2 L6,1 Z M11,2 L12,2 L12,3 L11,3 L11,2 Z M12,3 L13,3 L13,6 L12,6 L12,3 Z M11,6 L12,6 L12,7 L11,7 L11,6 Z M13,4 L14,4 L14,5 L13,5 L13,4 Z M14,5 L15,5 L15,6 L14,6 L14,5 Z" id="icon" fill="#000000"></path>
            </g>
        </g>
    </g>
</svg>