<?xml version="1.0" encoding="UTF-8"?>
<svg width="12px" height="16px" viewBox="0 0 12 16" version="1.1" xmlns="http://www.w3.org/2000/svg" xmlns:xlink="http://www.w3.org/1999/xlink">
    <!-- Generator: Sketch 46.1 (44463) - http://www.bohemiancoding.com/sketch -->
    <title>coffee</title>
    <desc>Created with Sketch.</desc>
    <defs></defs>
    <g id="Page-1" stroke="none" stroke-width="1" fill="none" fill-rule="evenodd">
        <g id="Artboard" transform="translate(-234.000000, -410.000000)">
            <g id="coffee" transform="translate(232.000000, 410.000000)">
                <rect id="bounds" fill-opacity="0" fill="#EEEEEE" x="0" y="0" width="16" height="16"></rect>
                <path d="M10,8 L3,8 L3,15 L2,15 L2,8 L2,7 L3,7 L11,7 L11,8 L13,8 L13,9 L10,9 L10,8 Z M3,16 L3,15 L10,15 L10,16 L3,16 Z M10,13 L11,13 L13,13 L13,14 L11,14 L11,15 L10,15 L10,14 L10,13 Z M13,13 L13,9 L14,9 L14,13 L13,13 Z M10,12 L10,10 L12,10 L12,12 L10,12 Z M3,3 L3,1 L4,1 L4,3 L3,3 Z M2,5 L2,3 L3,3 L3,5 L2,5 Z M3,6 L3,5 L4,5 L4,6 L3,6 Z M6,3 L6,1 L7.001,1 L7.001,3 L6,3 Z M5,5 L5,3 L6,3 L6,5 L5,5 Z M6,6 L6,5 L7.001,5 L7.001,6 L6,6 Z M9,3 L9,1 L10,1 L10,3 L9,3 Z M8,5 L8,3 L9,3 L9,5 L8,5 Z M9,6 L9,5 L10,5 L10,6 L9,6 Z M2,1 L2,0 L3,0 L3,1 L2,1 Z M5,1 L5,0 L6,0 L6,1 L5,1 Z M8,1 L8,0 L9,0 L9,1 L8,1 Z" id="icon" fill="#000000"></path>
            </g>
        </g>
    </g>
</svg>