<?xml version="1.0" encoding="UTF-8"?>
<svg width="16px" height="16px" viewBox="0 0 16 16" version="1.1" xmlns="http://www.w3.org/2000/svg" xmlns:xlink="http://www.w3.org/1999/xlink">
    <!-- Generator: Sketch 46.1 (44463) - http://www.bohemiancoding.com/sketch -->
    <title>copy</title>
    <desc>Created with Sketch.</desc>
    <defs></defs>
    <g id="Page-1" stroke="none" stroke-width="1" fill="none" fill-rule="evenodd">
        <g id="Artboard" transform="translate(-40.000000, -314.000000)">
            <g id="copy" transform="translate(40.000000, 314.000000)">
                <rect id="bounds" fill-opacity="0" fill="#EEEEEE" x="0" y="0" width="16" height="16"></rect>
                <path d="M6,0 L5,0 L5,5 L1,5 L0,5 L0,6 L0,15 L0,16 L1,16 L10,16 L11,16 L11,15 L11,11 L15,11 L16,11 L16,10 L16,1 L16,0 L15,0 L6,0 Z M10,10 L10,11 L10,15 L1,15 L1,6 L5,6 L6,6 L10,6 L10,10 Z M15,10 L11,10 L11,6 L11,5 L10,5 L6,5 L6,1 L15,1 L15,10 Z" id="icon" fill="#000000" fill-rule="nonzero"></path>
            </g>
        </g>
    </g>
</svg>