<?xml version="1.0" encoding="UTF-8"?>
<svg width="16px" height="16px" viewBox="0 0 16 16" version="1.1" xmlns="http://www.w3.org/2000/svg" xmlns:xlink="http://www.w3.org/1999/xlink">
    <!-- Generator: Sketch 46.1 (44463) - http://www.bohemiancoding.com/sketch -->
    <title>database</title>
    <desc>Created with Sketch.</desc>
    <defs></defs>
    <g id="Page-1" stroke="none" stroke-width="1" fill="none" fill-rule="evenodd">
        <g id="Artboard" transform="translate(-40.000000, -410.000000)">
            <g id="database" transform="translate(40.000000, 410.000000)">
                <rect id="bounds" fill-opacity="0" fill="#EEEEEE" x="0" y="0" width="16" height="16"></rect>
                <path d="M13,5 L15,5 L15,6 L13,6 L13,5 Z M3,0 L13,0 L13,1 L3,1 L3,0 Z M13,1 L15,1 L15,2 L13,2 L13,1 Z M1,1 L3,1 L3,2 L1,2 L1,1 Z M0,2 L1,2 L1,14 L0,14 L0,2 Z M15,2 L16,2 L16,14 L15,14 L15,2 Z M1,5 L3,5 L3,6 L1,6 L1,5 Z M3,6 L13,6 L13,7 L3,7 L3,6 Z M13,8 L15,8 L15,9 L13,9 L13,8 Z M1,8 L3,8 L3,9 L1,9 L1,8 Z M3,9 L13,9 L13,10 L3,10 L3,9 Z M13,11 L15,11 L15,12 L13,12 L13,11 Z M1,11 L3,11 L3,12 L1,12 L1,11 Z M3,12 L13,12 L13,13 L3,13 L3,12 Z M13,14 L15,14 L15,15 L13,15 L13,14 Z M1,14 L3,14 L3,15 L1,15 L1,14 Z M3,15 L13,15 L13,16 L3,16 L3,15 Z" id="icon" fill="#000000"></path>
            </g>
        </g>
    </g>
</svg>