<?xml version="1.0" encoding="UTF-8"?>
<svg width="16px" height="14px" viewBox="0 0 16 14" version="1.1" xmlns="http://www.w3.org/2000/svg" xmlns:xlink="http://www.w3.org/1999/xlink">
    <!-- Generator: Sketch 46.1 (44463) - http://www.bohemiancoding.com/sketch -->
    <title>diamond</title>
    <desc>Created with Sketch.</desc>
    <defs></defs>
    <g id="Page-1" stroke="none" stroke-width="1" fill="none" fill-rule="evenodd">
        <g id="Artboard" transform="translate(-232.000000, -379.000000)">
            <g id="diamond" transform="translate(232.000000, 378.000000)">
                <rect id="bounds" fill-opacity="0" fill="#EEEEEE" x="0" y="0" width="16" height="16"></rect>
                <path d="M13,2 L14,2 L14,3 L13,3 L13,2 Z M14,3 L15,3 L15,4 L14,4 L14,3 Z M1,3 L2,3 L2,4 L1,4 L1,3 Z M2,2 L3,2 L3,3 L2,3 L2,2 Z M1,8 L2,8 L2,9 L1,9 L1,8 Z M2,9 L3,9 L3,10 L2,10 L2,9 Z M3,10 L4,10 L4,11 L3,11 L3,10 Z M4,11 L5,11 L5,12 L4,12 L4,11 Z M11,11 L12,11 L12,12 L11,12 L11,11 Z M12,10 L13,10 L13,11 L12,11 L12,10 Z M13,9 L14,9 L14,10 L13,10 L13,9 Z M14,8 L15,8 L15,9 L14,9 L14,8 Z M6,3 L6,2 L3,2 L3,1 L6,1 L7,1 L9,1 L10,1 L13,1 L13,2 L10,2 L10,3 L9,3 L9,2 L7,2 L7,3 L6,3 Z M5,3 L6,3 L6,4 L5,4 L5,3 Z M5,9 L6,9 L6,11 L5,11 L5,9 Z M10,3 L11,3 L11,4 L10,4 L10,3 Z M10,9 L11,9 L11,11 L10,11 L10,9 Z M10,11 L10,12 L11,12 L11,13 L10,13 L10,14 L9,14 L9,15 L8,15 L7,15 L7,14 L6,14 L6,13 L5,13 L5,12 L6,12 L6,11 L7,11 L7,13 L8,13 L9,13 L9,11 L10,11 Z M15,5 L15,4 L16,4 L16,5 L16,8 L15,8 L15,6 L12,6 L12,9 L11,9 L11,6 L5,6 L5,9 L4,9 L4,6 L1,6 L1,8 L0,8 L0,6 L0,5 L0,4 L1,4 L1,5 L4,5 L4,4 L5,4 L5,5 L11,5 L11,4 L12,4 L12,5 L15,5 Z" id="icon" fill="#000000" fill-rule="nonzero"></path>
            </g>
        </g>
    </g>
</svg>