<?xml version="1.0" encoding="UTF-8"?>
<svg width="16px" height="16px" viewBox="0 0 16 16" version="1.1" xmlns="http://www.w3.org/2000/svg" xmlns:xlink="http://www.w3.org/1999/xlink">
    <!-- Generator: Sketch 46.1 (44463) - http://www.bohemiancoding.com/sketch -->
    <title>edit</title>
    <desc>Created with Sketch.</desc>
    <defs></defs>
    <g id="Page-1" stroke="none" stroke-width="1" fill="none" fill-rule="evenodd">
        <g id="Artboard" transform="translate(-168.000000, -314.000000)">
            <g id="edit" transform="translate(168.000000, 314.000000)">
                <rect id="bounds" fill-opacity="0" fill="#EEEEEE" x="0" y="0" width="16" height="16"></rect>
                <path d="M2,10 L3,10 L3,11 L2,11 L2,10 Z M3,9 L4,9 L4,10 L3,10 L3,9 Z M4,8 L5,8 L5,9 L4,9 L4,8 Z M5,7 L6,7 L6,8 L5,8 L5,7 Z M6,6 L7,6 L7,7 L6,7 L6,6 Z M7,5 L8,5 L8,6 L7,6 L7,5 Z M8,4 L9,4 L9,5 L8,5 L8,4 Z M9,3 L10,3 L10,4 L9,4 L9,3 Z M10,2 L11,2 L11,3 L10,3 L10,2 Z M11,1 L12,1 L12,2 L11,2 L11,1 Z M5,13 L6,13 L6,14 L5,14 L5,13 Z M6,12 L7,12 L7,13 L6,13 L6,12 Z M7,11 L8,11 L8,12 L7,12 L7,11 Z M8,10 L9,10 L9,11 L8,11 L8,10 Z M9,9 L10,9 L10,10 L9,10 L9,9 Z M10,8 L11,8 L11,9 L10,9 L10,8 Z M11,7 L12,7 L12,8 L11,8 L11,7 Z M12,6 L13,6 L13,7 L12,7 L12,6 Z M13,5 L14,5 L14,6 L13,6 L13,5 Z M5,10 L6,10 L6,11 L5,11 L5,10 Z M4,11 L5,11 L5,12 L4,12 L4,11 Z M6,9 L7,9 L7,10 L6,10 L6,9 Z M7,8 L8,8 L8,9 L7,9 L7,8 Z M8,7 L9,7 L9,8 L8,8 L8,7 Z M9,6 L10,6 L10,7 L9,7 L9,6 Z M14,4 L15,4 L15,5 L14,5 L14,4 Z M12,0 L13,0 L13,1 L12,1 L12,0 Z M13,1 L14,1 L14,2 L13,2 L13,1 Z M14,2 L15,2 L15,3 L14,3 L14,2 Z M15,3 L16,3 L16,4 L15,4 L15,3 Z M11,3 L12,3 L12,4 L11,4 L11,3 Z M12,4 L13,4 L13,5 L12,5 L12,4 Z M3,14 L4,14 L5,14 L5,15 L4,15 L4,16 L3,16 L1,16 L0,16 L0,15 L0,13 L0,12 L1,12 L1,11 L2,11 L2,12 L2,13 L3,13 L3,14 Z" id="icon" fill="#000000" fill-rule="nonzero"></path>
            </g>
        </g>
    </g>
</svg>