<?xml version="1.0" encoding="UTF-8"?>
<svg width="12px" height="16px" viewBox="0 0 12 16" version="1.1" xmlns="http://www.w3.org/2000/svg" xmlns:xlink="http://www.w3.org/1999/xlink">
    <!-- Generator: Sketch 46.1 (44463) - http://www.bohemiancoding.com/sketch -->
    <title>file</title>
    <desc>Created with Sketch.</desc>
    <defs></defs>
    <g id="Page-1" stroke="none" stroke-width="1" fill="none" fill-rule="evenodd">
        <g id="Artboard" transform="translate(-202.000000, -442.000000)">
            <g id="file" transform="translate(200.000000, 442.000000)">
                <rect id="bounds" fill-opacity="0" fill="#EEEEEE" x="0" y="0" width="16" height="16"></rect>
                <path d="M13,4 L13,3 L12,3 L12,4 L10,4 L10,2 L11,2 L11,1 L10,1 L10,0 L3,0 L2,0 L2,15 L2,16 L3,16 L13,16 L14,16 L14,4 L13,4 L13,4 Z M13,15 L3,15 L3,1 L9,1 L9,4 L9,5 L10,5 L13,5 L13,15 Z M11,2 L12,2 L12,3 L11,3 L11,2 Z" id="icon" fill="#000000"></path>
            </g>
        </g>
    </g>
</svg>