<?xml version="1.0" encoding="UTF-8"?>
<svg width="12px" height="16px" viewBox="0 0 12 16" version="1.1" xmlns="http://www.w3.org/2000/svg" xmlns:xlink="http://www.w3.org/1999/xlink">
    <!-- Generator: Sketch 46.1 (44463) - http://www.bohemiancoding.com/sketch -->
    <title>file-copy</title>
    <desc>Created with Sketch.</desc>
    <defs></defs>
    <g id="Page-1" stroke="none" stroke-width="1" fill="none" fill-rule="evenodd">
        <g id="Artboard" transform="translate(-234.000000, -442.000000)">
            <g id="file-copy" transform="translate(232.000000, 442.000000)">
                <rect id="bounds" fill-opacity="0" fill="#EEEEEE" x="0" y="0" width="16" height="16"></rect>
                <path d="M10,7 L9,7 L9,8 L7,8 L7,6 L8,6 L8,5 L7,5 L7,4 L3,4 L2,4 L2,15 L2,16 L3,16 L10,16 L11,16 L11,8 L10,8 L10,7 Z M10,15 L3,15 L3,5 L6,5 L6,8 L6,9 L7,9 L10,9 L10,15 Z M8,6 L9,6 L9,7 L8,7 L8,6 Z M13,4 L14,4 L14,12 L13,12 L12,12 L12,11 L13,11 L13,5 L10,5 L9,5 L9,4 L9,1 L6,1 L6,3 L5,3 L5,0 L6,0 L10,0 L10,1 L11,1 L11,2 L10,2 L10,4 L12,4 L12,3 L13,3 L13,4 Z M11,2 L12,2 L12,3 L11,3 L11,2 Z" id="icon" fill="#000000" fill-rule="nonzero"></path>
            </g>
        </g>
    </g>
</svg>