<?xml version="1.0" encoding="UTF-8"?>
<svg width="16px" height="16px" viewBox="0 0 16 16" version="1.1" xmlns="http://www.w3.org/2000/svg" xmlns:xlink="http://www.w3.org/1999/xlink">
    <!-- Generator: Sketch 46.1 (44463) - http://www.bohemiancoding.com/sketch -->
    <title>filter</title>
    <desc>Created with Sketch.</desc>
    <defs></defs>
    <g id="Page-1" stroke="none" stroke-width="1" fill="none" fill-rule="evenodd">
        <g id="Artboard" transform="translate(-200.000000, -378.000000)">
            <g id="filter" transform="translate(200.000000, 378.000000)">
                <rect id="bounds" fill-opacity="0" fill="#EEEEEE" x="0" y="0" width="16" height="16"></rect>
                <path d="M1,0 L15,0 L16,0 L16,1 L16,3 L15,3 L15,1 L1,1 L1,3 L0,3 L0,1 L0,0 L1,0 Z M1,3 L2,3 L2,4 L1,4 L1,3 Z M2,4 L3,4 L3,5 L2,5 L2,4 Z M3,5 L4,5 L4,6 L3,6 L3,5 Z M4,6 L5,6 L5,7 L4,7 L4,6 Z M6,7 L6,8 L6,13 L5,13 L5,8 L5,7 L6,7 Z M14,3 L15,3 L15,4 L14,4 L14,3 Z M13,4 L14,4 L14,5 L13,5 L13,4 Z M12,5 L13,5 L13,6 L12,6 L12,5 Z M11,6 L12,6 L12,7 L11,7 L11,6 Z M10,7 L11,7 L11,8 L10,8 L10,7 Z M9,15 L9,8 L10,8 L10,16 L9,16 L8,16 L8,15 L9,15 Z M7,14 L8,14 L8,15 L7,15 L7,14 Z M6,13 L7,13 L7,14 L6,14 L6,13 Z" id="icon" fill="#000000" fill-rule="nonzero"></path>
            </g>
        </g>
    </g>
</svg>