<?xml version="1.0" encoding="UTF-8"?>
<svg width="12px" height="16px" viewBox="0 0 12 16" version="1.1" xmlns="http://www.w3.org/2000/svg" xmlns:xlink="http://www.w3.org/1999/xlink">
    <!-- Generator: Sketch 46.1 (44463) - http://www.bohemiancoding.com/sketch -->
    <title>flag</title>
    <desc>Created with Sketch.</desc>
    <defs></defs>
    <g id="Page-1" stroke="none" stroke-width="1" fill="none" fill-rule="evenodd">
        <g id="Artboard" transform="translate(-42.000000, -266.000000)">
            <g id="flag" transform="translate(40.000000, 266.000000)">
                <rect id="bounds" fill-opacity="0" fill="#EEEEEE" x="0" y="0" width="16" height="16"></rect>
                <path d="M9,2 L13,2 L14,2 L14,3 L14,9 L14,10 L13,10 L9,10 L9,9 L12,9 L13,9 L13,3 L12,3 L9,3 L9,2 Z M9,3 L9,8 L9,9 L8,9 L4,9 L4,16 L2,16 L2,0 L4,0 L4,1 L9,1 L9,2 L5,2 L5,8 L8,8 L8,3 L9,3 Z" id="icon" fill="#000000" fill-rule="nonzero"></path>
            </g>
        </g>
    </g>
</svg>