<?xml version="1.0" encoding="UTF-8"?>
<svg width="14px" height="16px" viewBox="0 0 14 16" version="1.1" xmlns="http://www.w3.org/2000/svg" xmlns:xlink="http://www.w3.org/1999/xlink">
    <!-- Generator: Sketch 46.1 (44463) - http://www.bohemiancoding.com/sketch -->
    <title>gameboy</title>
    <desc>Created with Sketch.</desc>
    <defs></defs>
    <g id="Page-1" stroke="none" stroke-width="1" fill="none" fill-rule="evenodd">
        <g id="Artboard" transform="translate(-41.000000, -570.000000)">
            <g id="gameboy" transform="translate(40.000000, 570.000000)">
                <g id="Group-2">
                    <rect id="bounds" fill-opacity="0" fill="#EEEEEE" x="0" y="0" width="16" height="16"></rect>
                    <path d="M2,0 L14,0 L14,1 L2,1 L2,0 Z M14,1 L15,1 L15,14 L14,14 L14,1 Z M2,1 L2,15 L13,15 L13,16 L2,16 L1,16 L1,1 L2,1 Z M13,14 L14,14 L14,15 L13,15 L13,14 Z M5,10 L5,11 L6,11 L6,12 L5,12 L5,13 L4,13 L4,12 L3,12 L3,11 L4,11 L4,10 L5,10 Z M11,10 L13,10 L13,12 L11,12 L11,10 Z M8,11 L10,11 L10,13 L8,13 L8,11 Z M3,8 L3,2 L13,2 L13,8 L3,8 Z M4,3 L4,4 L5,4 L5,5 L6,5 L6,4 L5,4 L5,3 L4,3 Z" id="icon" fill="#000000" fill-rule="nonzero"></path>
                </g>
            </g>
        </g>
    </g>
</svg>