<?xml version="1.0" encoding="UTF-8"?>
<svg width="16px" height="16px" viewBox="0 0 16 16" version="1.1" xmlns="http://www.w3.org/2000/svg" xmlns:xlink="http://www.w3.org/1999/xlink">
    <!-- Generator: Sketch 46.1 (44463) - http://www.bohemiancoding.com/sketch -->
    <title>gift</title>
    <desc>Created with Sketch.</desc>
    <defs></defs>
    <g id="Page-1" stroke="none" stroke-width="1" fill="none" fill-rule="evenodd">
        <g id="Artboard" transform="translate(-40.000000, -346.000000)">
            <g id="gift" transform="translate(40.000000, 346.000000)">
                <rect id="bounds" fill-opacity="0" fill="#EEEEEE" x="0" y="0" width="16" height="16"></rect>
                <path d="M12,3 L12,1 L11,1 L11,3 L9,3 L9,1 L8,1 L7,1 L7,3 L5,3 L5,1 L4,1 L4,3 L1,3 L0,3 L0,4 L0,8 L0,9 L1,9 L1,15 L1,16 L2,16 L14,16 L15,16 L15,15 L15,9 L16,9 L16,8 L16,4 L16,3 L15,3 L12,3 Z M1,4 L6,4 L6,8 L1,8 L1,4 Z M2,15 L2,9 L7,9 L7,15 L2,15 Z M14,15 L9,15 L9,9 L14,9 L14,15 Z M15,8 L10,8 L10,4 L15,4 L15,8 Z M5,0 L7,0 L7,1 L5,1 L5,0 Z M9,0 L11,0 L11,1 L9,1 L9,0 Z" id="icon" fill="#000000" fill-rule="nonzero"></path>
            </g>
        </g>
    </g>
</svg>