<?xml version="1.0" encoding="UTF-8"?>
<svg width="16px" height="16px" viewBox="0 0 16 16" version="1.1" xmlns="http://www.w3.org/2000/svg" xmlns:xlink="http://www.w3.org/1999/xlink">
    <!-- Generator: Sketch 46.1 (44463) - http://www.bohemiancoding.com/sketch -->
    <title>headset</title>
    <desc>Created with Sketch.</desc>
    <defs></defs>
    <g id="Page-1" stroke="none" stroke-width="1" fill="none" fill-rule="evenodd">
        <g id="Artboard" transform="translate(-72.000000, -571.000000)">
            <g id="headset" transform="translate(72.000000, 571.000000)">
                <rect id="bounds" fill-opacity="0" fill="#EEEEEE" x="0" y="0" width="16" height="16"></rect>
                <path d="M4,2 L12,2 L12,3 L13,3 L13,8 L15,8 L15,2 L14,2 L14,1 L13,1 L13,0 L3,0 L3,1 L2,1 L2,2 L1,2 L1,8 L3,8 L3,3 L4,3 L4,2 Z M4,8 L5,8 L5,16 L4,16 L4,8 Z M2,15 L4,15 L4,16 L2,16 L2,15 Z M1,14 L2,14 L2,15 L1,15 L1,14 Z M0,10 L1,10 L1,14 L0,14 L0,10 Z M1,9 L2,9 L2,10 L1,10 L1,9 Z M1,8 L4,8 L4,9 L1,9 L1,8 Z M5,9 L6,9 L6,15 L5,15 L5,9 Z M2,10 L3,10 L3,14 L2,14 L2,10 Z M12,8 L12,16 L11,16 L11,8 L12,8 Z M14,15 L14,16 L12,16 L12,15 L14,15 Z M15,14 L15,15 L14,15 L14,14 L15,14 Z M16,10 L16,14 L15,14 L15,10 L16,10 Z M15,9 L15,10 L14,10 L14,9 L15,9 Z M15,8 L15,9 L12,9 L12,8 L15,8 Z M11,9 L11,15 L10,15 L10,9 L11,9 Z M14,10 L14,14 L13,14 L13,10 L14,10 Z" id="icon" fill="#000000"></path>
            </g>
        </g>
    </g>
</svg>