<?xml version="1.0" encoding="UTF-8"?>
<svg width="16px" height="14px" viewBox="0 0 16 14" version="1.1" xmlns="http://www.w3.org/2000/svg" xmlns:xlink="http://www.w3.org/1999/xlink">
    <!-- Generator: Sketch 46.1 (44463) - http://www.bohemiancoding.com/sketch -->
    <title>heart</title>
    <desc>Created with Sketch.</desc>
    <defs></defs>
    <g id="Page-1" stroke="none" stroke-width="1" fill="none" fill-rule="evenodd">
        <g id="Artboard" transform="translate(-40.000000, -379.000000)">
            <g id="heart" transform="translate(40.000000, 378.000000)">
                <rect id="bounds" fill-opacity="0" fill="#EEEEEE" x="0" y="0" width="16" height="16"></rect>
                <path d="M0,3 L1,3 L1,8 L0,8 L0,3 Z M2,9 L3,9 L3,10 L2,10 L2,9 Z M3,10 L4,10 L4,11 L3,11 L3,10 Z M4,11 L5,11 L5,12 L4,12 L4,11 Z M5,12 L6,12 L6,13 L5,13 L5,12 Z M6,13 L7,13 L7,14 L6,14 L6,13 Z M1,2 L2,2 L2,3 L1,3 L1,2 Z M2,1 L6,1 L6,2 L2,2 L2,1 Z M6,2 L7,2 L7,3 L6,3 L6,2 Z M15,3 L16,3 L16,8 L15,8 L15,3 Z M13,9 L14,9 L14,10 L13,10 L13,9 Z M12,10 L13,10 L13,11 L12,11 L12,10 Z M11,11 L12,11 L12,12 L11,12 L11,11 Z M10,12 L11,12 L11,13 L10,13 L10,12 Z M9,13 L10,13 L10,14 L9,14 L9,13 Z M7,14 L9,14 L9,15 L7,15 L7,14 Z M14,2 L15,2 L15,3 L14,3 L14,2 Z M10,1 L14,1 L14,2 L10,2 L10,1 Z M9,2 L10,2 L10,3 L9,3 L9,2 Z M7,3 L9,3 L9,4 L7,4 L7,3 Z M1,8 L2,8 L2,9 L1,9 L1,8 Z M14,8 L15,8 L15,9 L14,9 L14,8 Z" id="icon" fill="#000000" fill-rule="nonzero"></path>
            </g>
        </g>
    </g>
</svg>