<?xml version="1.0" encoding="UTF-8"?>
<svg width="16px" height="16px" viewBox="0 0 16 16" version="1.1" xmlns="http://www.w3.org/2000/svg" xmlns:xlink="http://www.w3.org/1999/xlink">
    <!-- Generator: Sketch 46.1 (44463) - http://www.bohemiancoding.com/sketch -->
    <title>house</title>
    <desc>Created with Sketch.</desc>
    <defs></defs>
    <g id="Page-1" stroke="none" stroke-width="1" fill="none" fill-rule="evenodd">
        <g id="Artboard" transform="translate(-72.000000, -378.000000)">
            <g id="house" transform="translate(72.000000, 378.000000)">
                <rect id="bounds" fill-opacity="0" fill="#EEEEEE" x="0" y="0" width="16" height="16"></rect>
                <path d="M1,6 L2,6 L2,7 L1,7 L1,6 Z M2,5 L3,5 L3,6 L2,6 L2,5 Z M3,4 L4,4 L4,5 L3,5 L3,4 Z M4,3 L5,3 L5,4 L4,4 L4,3 Z M5,2 L6,2 L6,3 L5,3 L5,2 Z M6,1 L7,1 L7,2 L6,2 L6,1 Z M15,8 L15,7 L16,7 L16,8 L16,9 L15,9 L15,15 L16,15 L16,16 L15,16 L14,16 L2,16 L1,16 L0,16 L0,15 L1,15 L1,9 L0,9 L0,8 L0,7 L1,7 L1,8 L2,8 L14,8 L15,8 Z M7,15 L9,15 L9,12 L7,12 L7,15 Z M14,15 L14,9 L2,9 L2,15 L6,15 L6,12 L6,11 L7,11 L9,11 L10,11 L10,12 L10,15 L14,15 Z M14,6 L15,6 L15,7 L14,7 L14,6 Z M13,5 L14,5 L14,6 L13,6 L13,5 Z M12,4 L13,4 L13,5 L12,5 L12,4 Z M11,3 L12,3 L12,4 L11,4 L11,3 Z M10,2 L11,2 L11,3 L10,3 L10,2 Z M9,1 L8,1 L7,1 L7,0 L8,0 L9,0 L9,1 Z M3,10 L5,10 L5,12 L3,12 L3,10 Z M11,10 L13,10 L13,12 L11,12 L11,10 Z M9,1 L10,1 L10,2 L9,2 L9,1 Z" id="icon" fill="#000000" fill-rule="nonzero"></path>
            </g>
        </g>
    </g>
</svg>