<?xml version="1.0" encoding="UTF-8"?>
<svg width="16px" height="16px" viewBox="0 0 16 16" version="1.1" xmlns="http://www.w3.org/2000/svg" xmlns:xlink="http://www.w3.org/1999/xlink">
    <!-- Generator: Sketch 46.1 (44463) - http://www.bohemiancoding.com/sketch -->
    <title>laptop</title>
    <desc>Created with Sketch.</desc>
    <defs></defs>
    <g id="Page-1" stroke="none" stroke-width="1" fill="none" fill-rule="evenodd">
        <g id="Artboard" transform="translate(-72.000000, -538.000000)">
            <g id="laptop" transform="translate(72.000000, 538.000000)">
                <rect id="bounds" fill-opacity="0" fill="#EEEEEE" x="0" y="0" width="16" height="16"></rect>
                <path d="M1,0 L0,0 L0,1 L0,9 L0,10 L0,15 L0,16 L1,16 L15,16 L16,16 L16,15 L16,10 L16,9 L16,1 L16,0 L15,0 L1,0 Z M15,15 L1,15 L1,10 L15,10 L15,15 Z M15,9 L1,9 L1,1 L15,1 L15,9 Z M11,13 L12,13 L12,11 L14,11 L14,13 L14,14 L12,14 L11,14 L11,13 Z M10,11 L11,11 L11,12 L10,12 L10,11 Z M8,11 L9,11 L9,12 L8,12 L8,11 Z M6,11 L7,11 L7,12 L6,12 L6,11 Z M4,11 L5,11 L5,12 L4,12 L4,11 Z M2,11 L3,11 L3,12 L2,12 L2,11 Z M3,13 L4,13 L4,14 L3,14 L3,13 Z M5,13 L6,13 L6,14 L5,14 L5,13 Z M7,13 L8,13 L8,14 L7,14 L7,13 Z M9,13 L10,13 L10,14 L9,14 L9,13 Z M14,8 L14,2 L2,2 L2,8 L14,8 Z M3,3 L4,3 L4,4 L5,4 L5,5 L4,5 L4,4 L3,4 L3,3 Z" id="icon" fill="#000000" fill-rule="nonzero"></path>
            </g>
        </g>
    </g>
</svg>