<?xml version="1.0" encoding="UTF-8"?>
<svg width="16px" height="16px" viewBox="0 0 16 16" version="1.1" xmlns="http://www.w3.org/2000/svg" xmlns:xlink="http://www.w3.org/1999/xlink">
    <!-- Generator: Sketch 46.1 (44463) - http://www.bohemiancoding.com/sketch -->
    <title>lifebelt</title>
    <desc>Created with Sketch.</desc>
    <defs></defs>
    <g id="Page-1" stroke="none" stroke-width="1" fill="none" fill-rule="evenodd">
        <g id="Artboard" transform="translate(-232.000000, -314.000000)">
            <g id="lifebelt" transform="translate(232.000000, 314.000000)">
                <rect id="bounds" fill-opacity="0" fill="#EEEEEE" x="0" y="0" width="16" height="16"></rect>
                <path d="M1,3 L2,3 L2,4 L1,4 L1,3 Z M2,2 L3,2 L3,3 L2,3 L2,2 Z M3,1 L4,1 L4,2 L3,2 L3,1 Z M4,0 L12,0 L12,1 L4,1 L4,0 Z M12,1 L13,1 L13,2 L12,2 L12,1 Z M13,2 L14,2 L14,3 L13,3 L13,2 Z M14,3 L15,3 L15,4 L14,4 L14,3 Z M0,4 L1,4 L1,12 L0,12 L0,4 Z M1,12 L2,12 L2,13 L1,13 L1,12 Z M2,13 L3,13 L3,14 L2,14 L2,13 Z M3,14 L4,14 L4,15 L3,15 L3,14 Z M4,15 L12,15 L12,16 L4,16 L4,15 Z M12,14 L13,14 L13,15 L12,15 L12,14 Z M13,13 L14,13 L14,14 L13,14 L13,13 Z M14,12 L15,12 L15,13 L14,13 L14,12 Z M15,4 L16,4 L16,12 L15,12 L15,4 Z M2,4 L3,4 L3,5 L2,5 L2,4 Z M3,5 L4,5 L4,6 L3,6 L3,5 Z M4,2 L5,2 L5,3 L4,3 L4,2 Z M5,3 L6,3 L6,4 L5,4 L5,3 Z M5,5 L6,5 L6,6 L5,6 L5,5 Z M13,4 L14,4 L14,5 L13,5 L13,4 Z M12,5 L13,5 L13,6 L12,6 L12,5 Z M11,2 L12,2 L12,3 L11,3 L11,2 Z M10,3 L11,3 L11,4 L10,4 L10,3 Z M10,5 L11,5 L11,6 L10,6 L10,5 Z M13,11 L14,11 L14,12 L13,12 L13,11 Z M12,10 L13,10 L13,11 L12,11 L12,10 Z M11,13 L12,13 L12,14 L11,14 L11,13 Z M10,12 L11,12 L11,13 L10,13 L10,12 Z M10,10 L11,10 L11,11 L10,11 L10,10 Z M2,11 L3,11 L3,12 L2,12 L2,11 Z M3,10 L4,10 L4,11 L3,11 L3,10 Z M4,13 L5,13 L5,14 L4,14 L4,13 Z M5,12 L6,12 L6,13 L5,13 L5,12 Z M5,10 L6,10 L6,11 L5,11 L5,10 Z M5,7 L5,9 L5,10 L4,10 L4,9 L4,7 L4,6 L5,6 L5,7 Z M9,5 L7,5 L6,5 L6,4 L7,4 L9,4 L10,4 L10,5 L9,5 Z M11,7 L11,6 L12,6 L12,7 L12,9 L12,10 L11,10 L11,9 L11,7 Z M7,11 L9,11 L10,11 L10,12 L9,12 L7,12 L6,12 L6,11 L7,11 Z" id="icon" fill="#000000" fill-rule="nonzero"></path>
            </g>
        </g>
    </g>
</svg>