<?xml version="1.0" encoding="UTF-8"?>
<svg width="12px" height="16px" viewBox="0 0 12 16" version="1.1" xmlns="http://www.w3.org/2000/svg" xmlns:xlink="http://www.w3.org/1999/xlink">
    <!-- Generator: Sketch 46.1 (44463) - http://www.bohemiancoding.com/sketch -->
    <title>lightbulb</title>
    <desc>Created with Sketch.</desc>
    <defs></defs>
    <g id="Page-1" stroke="none" stroke-width="1" fill="none" fill-rule="evenodd">
        <g id="Artboard" transform="translate(-202.000000, -314.000000)">
            <g id="lightbulb" transform="translate(200.000000, 314.000000)">
                <rect id="bounds" fill-opacity="0" fill="#EEEEEE" x="0" y="0" width="16" height="16"></rect>
                <path d="M6,11 L10,11 L10,12 L6,12 L6,11 Z M4,0 L12,0 L12,1 L4,1 L4,0 Z M12,1 L13,1 L13,2 L12,2 L12,1 Z M13,2 L14,2 L14,8 L13,8 L13,2 Z M2,2 L3,2 L3,8 L2,8 L2,2 Z M3,1 L4,1 L4,2 L3,2 L3,1 Z M3,8 L4,8 L4,9 L3,9 L3,8 Z M12,8 L13,8 L13,9 L12,9 L12,8 Z M5,14 L6,14 L6,15 L5,15 L5,14 Z M5,12 L6,12 L6,13 L5,13 L5,12 Z M6,13 L10,13 L10,14 L6,14 L6,13 Z M10,10 L6,10 L6,11 L5,11 L5,10 L4,10 L4,9 L5,9 L5,8 L6,8 L6,6 L7,6 L7,8 L9,8 L9,6 L10,6 L10,8 L11,8 L11,9 L12,9 L12,10 L11,10 L11,11 L10,11 L10,10 Z M10,14 L11,14 L11,15 L10,15 L10,14 Z M10,12 L11,12 L11,13 L10,13 L10,12 Z M6,15 L10,15 L10,16 L6,16 L6,15 Z M10,5 L11,5 L11,6 L10,6 L10,5 Z M5,5 L6,5 L6,6 L5,6 L5,5 Z" id="icon" fill="#000000" fill-rule="nonzero"></path>
            </g>
        </g>
    </g>
</svg>