<?xml version="1.0" encoding="UTF-8"?>
<svg width="16px" height="16px" viewBox="0 0 16 16" version="1.1" xmlns="http://www.w3.org/2000/svg" xmlns:xlink="http://www.w3.org/1999/xlink">
    <!-- Generator: Sketch 46.1 (44463) - http://www.bohemiancoding.com/sketch -->
    <title>location</title>
    <desc>Created with Sketch.</desc>
    <defs></defs>
    <g id="Page-1" stroke="none" stroke-width="1" fill="none" fill-rule="evenodd">
        <g id="Artboard" transform="translate(-72.000000, -266.000000)">
            <g id="location" transform="translate(72.000000, 266.000000)">
                <rect id="bounds" fill-opacity="0" fill="#EEEEEE" x="0" y="0" width="16" height="16"></rect>
                <path d="M15,0 L1,0 L0,0 L0,1 L0,15 L0,16 L1,16 L15,16 L16,16 L16,15 L16,1 L16,0 L15,0 Z M15,7 L14,7 L14,8 L15,8 L15,15 L2,15 L2,14 L1,14 L1,7 L2,7 L2,6 L1,6 L1,1 L6,1 L6,2 L7,2 L7,1 L14,1 L14,2 L15,2 L15,7 Z M2,13 L3,13 L3,14 L2,14 L2,13 Z M3,12 L4,12 L4,13 L3,13 L3,12 Z M4,11 L5,11 L5,12 L4,12 L4,11 Z M5,10 L6,10 L6,11 L5,11 L5,10 Z M6,9 L7,9 L7,10 L6,10 L6,9 Z M7,8 L8,8 L8,9 L7,9 L7,8 Z M8,7 L9,7 L9,8 L8,8 L8,7 Z M9,6 L10,6 L10,7 L9,7 L9,6 Z M10,5 L11,5 L11,6 L10,6 L10,5 Z M11,4 L12,4 L12,5 L11,5 L11,4 Z M12,3 L13,3 L13,4 L12,4 L12,3 Z M13,2 L14,2 L14,3 L13,3 L13,2 Z M2,7 L3,7 L3,8 L2,8 L2,7 Z M3,8 L4,8 L4,9 L3,9 L3,8 Z M4,9 L5,9 L5,10 L4,10 L4,9 Z M3,6 L4,6 L4,7 L3,7 L3,6 Z M4,5 L5,5 L5,6 L4,6 L4,5 Z M5,4 L6,4 L6,5 L5,5 L5,4 Z M6,3 L7,3 L7,4 L6,4 L6,3 Z M7,2 L8,2 L8,3 L7,3 L7,2 Z M8,3 L9,3 L9,4 L8,4 L8,3 Z M9,4 L10,4 L10,5 L9,5 L9,4 Z M12,5 L13,5 L13,6 L12,6 L12,5 Z M13,6 L14,6 L14,7 L13,7 L13,6 Z M13,8 L10,8 L10,9 L9,9 L9,12 L10,12 L10,13 L11,13 L11,14 L12,14 L12,13 L13,13 L13,12 L14,12 L14,9 L13,9 L13,8 Z M12,11 L11,11 L11,10 L12,10 L12,11 Z" id="icon" fill="#000000" fill-rule="nonzero"></path>
            </g>
        </g>
    </g>
</svg>