<?xml version="1.0" encoding="UTF-8"?>
<svg width="16px" height="16px" viewBox="0 0 16 16" version="1.1" xmlns="http://www.w3.org/2000/svg" xmlns:xlink="http://www.w3.org/1999/xlink">
    <!-- Generator: Sketch 46.1 (44463) - http://www.bohemiancoding.com/sketch -->
    <title>lock</title>
    <desc>Created with Sketch.</desc>
    <defs></defs>
    <g id="Page-1" stroke="none" stroke-width="1" fill="none" fill-rule="evenodd">
        <g id="Artboard" transform="translate(-168.000000, -346.000000)">
            <g id="lock" transform="translate(168.000000, 346.000000)">
                <rect id="bounds" fill-opacity="0" fill="#EEEEEE" x="0" y="0" width="16" height="16"></rect>
                <path d="M7,13 L7,11 L6,11 L6,9 L7,9 L9,9 L10,9 L10,11 L9,11 L9,13 L7,13 Z M12,0 L12,1 L4,1 L4,0 L5,0 L11,0 L12,0 Z M3,1 L4,1 L4,2 L3,2 L3,1 Z M12,1 L13,1 L13,2 L12,2 L12,1 Z M15,14 L15,7 L16,7 L16,16 L0,16 L0,7 L1,7 L1,14 L2,14 L2,15 L14,15 L14,14 L15,14 Z M3,7 L2,7 L1,7 L1,6 L2,6 L2,2 L3,2 L3,6 L4,6 L4,2 L12,2 L12,6 L13,6 L13,2 L14,2 L14,6 L15,6 L15,7 L14,7 L13,7 L12,7 L11,7 L5,7 L4,7 L3,7 Z M5,3 L5,6 L11,6 L11,3 L10,3 L6,3 L5,3 Z" id="icon" fill="#000000" fill-rule="nonzero"></path>
            </g>
        </g>
    </g>
</svg>