<?xml version="1.0" encoding="UTF-8"?>
<svg width="16px" height="16px" viewBox="0 0 16 16" version="1.1" xmlns="http://www.w3.org/2000/svg" xmlns:xlink="http://www.w3.org/1999/xlink">
    <!-- Generator: Sketch 46.1 (44463) - http://www.bohemiancoding.com/sketch -->
    <title>magnifying-glass</title>
    <desc>Created with Sketch.</desc>
    <defs></defs>
    <g id="Page-1" stroke="none" stroke-width="1" fill="none" fill-rule="evenodd">
        <g id="Artboard" transform="translate(-136.000000, -346.000000)">
            <g id="magnifying-glass" transform="translate(136.000000, 346.000000)">
                <rect id="bounds" fill-opacity="0" fill="#EEEEEE" x="0" y="0" width="16" height="16"></rect>
                <path d="M7,0 L11,0 L11,1 L7,1 L7,0 Z M11,1 L13,1 L13,2 L11,2 L11,1 Z M14,3 L15,3 L15,5 L14,5 L14,3 Z M15,5 L16,5 L16,9 L15,9 L15,5 Z M14,9 L15,9 L15,11 L14,11 L14,9 Z M11,12 L13,12 L13,13 L11,13 L11,12 Z M7,13 L11,13 L11,14 L7,14 L7,13 Z M5,1 L7,1 L7,2 L5,2 L5,1 Z M3,3 L4,3 L4,5 L3,5 L3,3 Z M2,5 L3,5 L3,9 L2,9 L2,5 Z M13,2 L14,2 L14,3 L13,3 L13,2 Z M4,2 L5,2 L5,3 L4,3 L4,2 Z M3,9 L4,9 L4,11 L3,11 L3,9 Z M4,11 L5,11 L5,12 L4,12 L4,11 Z M5,12 L7,12 L7,13 L5,13 L5,12 Z M13,11 L14,11 L14,12 L13,12 L13,11 Z M2,11 L3,11 L3,12 L2,12 L2,11 Z M1,12 L2,12 L2,13 L1,13 L1,12 Z M1,13 L1,15 L3,15 L3,16 L1,16 L0,16 L0,15 L0,13 L1,13 Z M4,13 L5,13 L5,14 L4,14 L4,13 Z M3,14 L4,14 L4,15 L3,15 L3,14 Z M6,3 L8,3 L8,4 L6,4 L6,3 Z M5,4 L6,4 L6,6 L5,6 L5,4 Z" id="icon" fill="#000000" fill-rule="nonzero"></path>
            </g>
        </g>
    </g>
</svg>