<?xml version="1.0" encoding="UTF-8"?>
<svg width="16px" height="16px" viewBox="0 0 16 16" version="1.1" xmlns="http://www.w3.org/2000/svg" xmlns:xlink="http://www.w3.org/1999/xlink">
    <!-- Generator: Sketch 46.1 (44463) - http://www.bohemiancoding.com/sketch -->
    <title>map</title>
    <desc>Created with Sketch.</desc>
    <defs></defs>
    <g id="Page-1" stroke="none" stroke-width="1" fill="none" fill-rule="evenodd">
        <g id="Artboard" transform="translate(-104.000000, -266.000000)">
            <g id="map" transform="translate(104.000000, 266.000000)">
                <rect id="bounds" fill-opacity="0" fill="#EEEEEE" x="0" y="0" width="16" height="16"></rect>
                <path d="M1,4 L1,14 L2,14 L2,15 L1,15 L1,16 L0,16 L0,4 L1,4 Z M1,3 L2,3 L2,4 L1,4 L1,3 Z M2,2 L3,2 L3,3 L2,3 L2,2 Z M7,1 L6,1 L6,11 L5,11 L5,1 L4,1 L4,0 L7,0 L7,1 Z M2,13 L3,13 L3,14 L2,14 L2,13 Z M3,12 L4,12 L4,13 L3,13 L3,12 Z M6,11 L7,11 L7,12 L6,12 L6,11 Z M7,12 L8,12 L8,13 L7,13 L7,12 Z M8,13 L9,13 L9,14 L8,14 L8,13 Z M9,14 L10,14 L10,15 L9,15 L9,14 Z M12,5 L12,14 L13,14 L13,15 L12,15 L12,16 L11,16 L10,16 L10,15 L11,15 L11,14 L11,5 L10,5 L10,4 L11,4 L12,4 L12,5 Z M3,1 L4,1 L4,2 L3,2 L3,1 Z M4,11 L5,11 L5,12 L4,12 L4,11 Z M13,13 L14,13 L14,14 L13,14 L13,13 Z M14,12 L15,12 L15,13 L14,13 L14,12 Z M15,1 L15,0 L16,0 L16,12 L15,12 L15,2 L14,2 L14,1 L15,1 Z M13,2 L14,2 L14,3 L13,3 L13,2 Z M12,3 L13,3 L13,4 L12,4 L12,3 Z M7,1 L8,1 L8,2 L7,2 L7,1 Z M8,2 L9,2 L9,3 L8,3 L8,2 Z M9,3 L10,3 L10,4 L9,4 L9,3 Z" id="icon" fill="#000000" fill-rule="nonzero"></path>
            </g>
        </g>
    </g>
</svg>