<?xml version="1.0" encoding="UTF-8"?>
<svg width="16px" height="16px" viewBox="0 0 16 16" version="1.1" xmlns="http://www.w3.org/2000/svg" xmlns:xlink="http://www.w3.org/1999/xlink">
    <!-- Generator: Sketch 46.1 (44463) - http://www.bohemiancoding.com/sketch -->
    <title>maximize</title>
    <desc>Created with Sketch.</desc>
    <defs></defs>
    <g id="Page-1" stroke="none" stroke-width="1" fill="none" fill-rule="evenodd">
        <g id="Artboard" transform="translate(-40.000000, -218.000000)">
            <g id="maximize" transform="translate(40.000000, 218.000000)">
                <rect id="bounds" fill-opacity="0" fill="#EEEEEE" x="0" y="0" width="16" height="16"></rect>
                <path d="M14,0 L16,0 L16,1 L16,2 L16,6 L15,6 L15,5 L14,5 L14,4 L13,4 L13,5 L12,5 L12,6 L11,6 L11,7 L10,7 L10,6 L9,6 L9,5 L10,5 L10,4 L11,4 L11,3 L12,3 L12,2 L11,2 L11,1 L10,1 L10,0 L14,0 Z M6,4 L6,5 L7,5 L7,6 L6,6 L6,7 L5,7 L5,6 L4,6 L4,5 L3,5 L3,4 L2,4 L2,5 L1,5 L1,6 L0,6 L0,2 L0,1 L0,0 L1,0 L2,0 L6,0 L6,1 L5,1 L5,2 L4,2 L4,3 L5,3 L5,4 L6,4 Z M15,11 L15,10 L16,10 L16,14 L16,16 L15,16 L14,16 L10,16 L10,15 L11,15 L11,14 L12,14 L12,13 L11,13 L11,12 L10,12 L10,11 L9,11 L9,10 L10,10 L10,9 L11,9 L11,10 L12,10 L12,11 L13,11 L13,12 L14,12 L14,11 L15,11 Z M6,9 L6,10 L7,10 L7,11 L6,11 L6,12 L5,12 L5,13 L4,13 L4,14 L5,14 L5,15 L6,15 L6,16 L2,16 L1,16 L0,16 L0,15 L0,14 L0,10 L1,10 L1,11 L2,11 L2,12 L3,12 L3,11 L4,11 L4,10 L5,10 L5,9 L6,9 Z" id="icon" fill="#000000" fill-rule="nonzero"></path>
            </g>
        </g>
    </g>
</svg>