<?xml version="1.0" encoding="UTF-8"?>
<svg width="8px" height="16px" viewBox="0 0 8 16" version="1.1" xmlns="http://www.w3.org/2000/svg" xmlns:xlink="http://www.w3.org/1999/xlink">
    <!-- Generator: Sketch 46.1 (44463) - http://www.bohemiancoding.com/sketch -->
    <title>mic</title>
    <desc>Created with Sketch.</desc>
    <defs></defs>
    <g id="Page-1" stroke="none" stroke-width="1" fill="none" fill-rule="evenodd">
        <g id="Artboard" transform="translate(-108.000000, -570.000000)">
            <g id="mic" transform="translate(104.000000, 570.000000)">
                <rect id="bounds" fill-opacity="0" fill="#EEEEEE" x="-1.42108547e-14" y="0" width="16" height="16"></rect>
                <path d="M8,7 L9,7 L9,8 L8,8 L8,7 Z M7,6 L8,6 L8,7 L7,7 L7,6 Z M8,5 L9,5 L9,6 L8,6 L8,5 Z M7,4 L8,4 L8,5 L7,5 L7,4 Z M8,3 L9,3 L9,4 L8,4 L8,3 Z M7,2 L8,2 L8,3 L7,3 L7,2 Z M11,1 L11,8 L12,8 L12,9 L11,9 L11,10 L10,10 L9,10 L9,12 L10,12 L10,13 L10,15 L12,15 L12,16 L10,16 L6,16 L4,16 L4,15 L6,15 L6,13 L6,12 L7,12 L7,10 L6,10 L5,10 L5,9 L4,9 L4,8 L5,8 L5,1 L6,1 L6,0 L7,0 L9,0 L10,0 L10,1 L9,1 L9,2 L8,2 L8,1 L7,1 L7,2 L6,2 L6,3 L7,3 L7,4 L6,4 L6,5 L7,5 L7,6 L6,6 L6,7 L7,7 L7,8 L6,8 L6,9 L7,9 L7,8 L8,8 L8,9 L9,9 L9,8 L10,8 L10,7 L9,7 L9,6 L10,6 L10,5 L9,5 L9,4 L10,4 L10,3 L9,3 L9,2 L10,2 L10,1 L11,1 Z M9,15 L9,13 L7,13 L7,15 L9,15 Z" id="icon" fill="#000000" fill-rule="nonzero"></path>
            </g>
        </g>
    </g>
</svg>