<?xml version="1.0" encoding="UTF-8"?>
<svg width="16px" height="16px" viewBox="0 0 16 16" version="1.1" xmlns="http://www.w3.org/2000/svg" xmlns:xlink="http://www.w3.org/1999/xlink">
    <!-- Generator: Sketch 46.1 (44463) - http://www.bohemiancoding.com/sketch -->
    <title>minimize</title>
    <desc>Created with Sketch.</desc>
    <defs></defs>
    <g id="Page-1" stroke="none" stroke-width="1" fill="none" fill-rule="evenodd">
        <g id="Artboard" transform="translate(-72.000000, -218.000000)">
            <g id="minimize" transform="translate(72.000000, 218.000000)">
                <rect id="bounds" fill-opacity="0" fill="#EEEEEE" x="0" y="0" width="16" height="16"></rect>
                <path d="M6,2 L6,1 L7,1 L7,5 L7,6 L7,7 L6,7 L5,7 L1,7 L1,6 L2,6 L2,5 L3,5 L3,4 L2,4 L2,3 L1,3 L1,2 L0,2 L0,1 L1,1 L1,0 L2,0 L2,1 L3,1 L3,2 L4,2 L4,3 L5,3 L5,2 L6,2 Z M15,1 L16,1 L16,2 L15,2 L15,3 L14,3 L14,4 L13,4 L13,5 L14,5 L14,6 L15,6 L15,7 L11,7 L10,7 L9,7 L9,6 L9,5 L9,1 L10,1 L10,2 L11,2 L11,3 L12,3 L12,2 L13,2 L13,1 L14,1 L14,0 L15,0 L15,1 Z M15,13 L15,14 L16,14 L16,15 L15,15 L15,16 L14,16 L14,15 L13,15 L13,14 L12,14 L12,13 L11,13 L11,14 L10,14 L10,15 L9,15 L9,11 L9,10 L9,9 L10,9 L11,9 L15,9 L15,10 L14,10 L14,11 L13,11 L13,12 L14,12 L14,13 L15,13 Z M5,9 L6,9 L7,9 L7,10 L7,11 L7,15 L6,15 L6,14 L5,14 L5,13 L4,13 L4,14 L3,14 L3,15 L2,15 L2,16 L1,16 L1,15 L0,15 L0,14 L1,14 L1,13 L2,13 L2,12 L3,12 L3,11 L2,11 L2,10 L1,10 L1,9 L5,9 Z" id="icon" fill="#000000" fill-rule="nonzero"></path>
            </g>
        </g>
    </g>
</svg>