<?xml version="1.0" encoding="UTF-8"?>
<svg width="16px" height="16px" viewBox="0 0 16 16" version="1.1" xmlns="http://www.w3.org/2000/svg" xmlns:xlink="http://www.w3.org/1999/xlink">
    <!-- Generator: Sketch 46.1 (44463) - http://www.bohemiancoding.com/sketch -->
    <title>monitor</title>
    <desc>Created with Sketch.</desc>
    <defs></defs>
    <g id="Page-1" stroke="none" stroke-width="1" fill="none" fill-rule="evenodd">
        <g id="Artboard" transform="translate(-104.000000, -538.000000)">
            <g id="monitor" transform="translate(104.000000, 538.000000)">
                <rect id="bounds" fill-opacity="0" fill="#EEEEEE" x="0" y="0" width="16" height="16"></rect>
                <path d="M1,0 L15,0 L16,0 L16,1 L16,12 L15,12 L9,12 L9,15 L11,15 L11,16 L9,16 L7,16 L5,16 L5,15 L7,15 L7,12 L1,12 L0,12 L0,11 L0,1 L0,0 L1,0 Z M15,11 L15,1 L1,1 L1,11 L7,11 L9,11 L15,11 Z M14,2 L2,2 L2,10 L14,10 L14,2 Z M5,5 L4,5 L4,4 L3,4 L3,3 L4,3 L4,4 L5,4 L5,5 Z" id="icon" fill="#000000" fill-rule="nonzero"></path>
            </g>
        </g>
    </g>
</svg>