<?xml version="1.0" encoding="UTF-8"?>
<svg width="10px" height="16px" viewBox="0 0 10 16" version="1.1" xmlns="http://www.w3.org/2000/svg" xmlns:xlink="http://www.w3.org/1999/xlink">
    <!-- Generator: Sketch 46.1 (44463) - http://www.bohemiancoding.com/sketch -->
    <title>mouse</title>
    <desc>Created with Sketch.</desc>
    <defs></defs>
    <g id="Page-1" stroke="none" stroke-width="1" fill="none" fill-rule="evenodd">
        <g id="Artboard" transform="translate(-202.000000, -538.000000)">
            <g id="mouse" transform="translate(200.000000, 538.000000)">
                <rect id="bounds" fill-opacity="0" fill="#EEEEEE" x="0" y="0" width="16" height="16"></rect>
                <path d="M5,15 L10,15 L10,16 L5,16 L5,15 Z M7,6 L7,4 L8,4 L8,6 L10,6 L10,7 L8,7 L8,10 L10,10 L10,7 L11,7 L11,15 L10,15 L10,11 L8,11 L7,11 L5,11 L5,15 L4,15 L4,7 L5,7 L5,10 L7,10 L7,7 L5,7 L5,6 L7,6 Z M3,3 L7,3 L7,4 L3,4 L3,3 Z M2,1 L3,1 L3,3 L2,3 L2,1 Z M3,0 L12,0 L12,1 L3,1 L3,0 Z" id="Combined-Shape" fill="#000000" fill-rule="nonzero"></path>
            </g>
        </g>
    </g>
</svg>