<?xml version="1.0" encoding="UTF-8"?>
<svg width="16px" height="16px" viewBox="0 0 16 16" version="1.1" xmlns="http://www.w3.org/2000/svg" xmlns:xlink="http://www.w3.org/1999/xlink">
    <!-- Generator: Sketch 46.1 (44463) - http://www.bohemiancoding.com/sketch -->
    <title>move-left</title>
    <desc>Created with Sketch.</desc>
    <defs></defs>
    <g id="Page-1" stroke="none" stroke-width="1" fill="none" fill-rule="evenodd">
        <g id="Artboard" transform="translate(-168.000000, -186.000000)">
            <g id="move-left" transform="translate(168.000000, 186.000000)">
                <rect id="bounds" fill-opacity="0" fill="#EEEEEE" x="0" y="0" width="16" height="16"></rect>
                <path d="M15,0 L9,0 L8,0 L8,1 L8,7 L4,7 L4,4 L3,4 L3,5 L2,5 L2,6 L1,6 L1,7 L0,7 L0,9 L1,9 L1,10 L2,10 L2,11 L3,11 L3,12 L4,12 L4,9 L8,9 L8,15 L8,16 L9,16 L15,16 L16,16 L16,15 L16,1 L16,0 L15,0 Z M15,15 L9,15 L9,1 L15,1 L15,15 Z" id="icon" fill="#000000" fill-rule="nonzero"></path>
            </g>
        </g>
    </g>
</svg>