<?xml version="1.0" encoding="UTF-8"?>
<svg width="16px" height="16px" viewBox="0 0 16 16" version="1.1" xmlns="http://www.w3.org/2000/svg" xmlns:xlink="http://www.w3.org/1999/xlink">
    <!-- Generator: Sketch 46.1 (44463) - http://www.bohemiancoding.com/sketch -->
    <title>move-right</title>
    <desc>Created with Sketch.</desc>
    <defs></defs>
    <g id="Page-1" stroke="none" stroke-width="1" fill="none" fill-rule="evenodd">
        <g id="Artboard" transform="translate(-104.000000, -186.000000)">
            <g id="move-right" transform="translate(104.000000, 186.000000)">
                <rect id="bounds" fill-opacity="0" fill="#EEEEEE" x="0" y="0" width="16" height="16"></rect>
                <path d="M15,7 L15,6 L14,6 L14,5 L13,5 L13,4 L12,4 L12,7 L8,7 L8,1 L8,0 L7,0 L1,0 L0,0 L0,1 L0,15 L0,16 L1,16 L7,16 L8,16 L8,15 L8,9 L12,9 L12,12 L13,12 L13,11 L14,11 L14,10 L15,10 L15,9 L16,9 L16,7 L15,7 Z M1,15 L1,1 L7,1 L7,15 L1,15 Z" id="icon" fill="#000000" fill-rule="nonzero"></path>
            </g>
        </g>
    </g>
</svg>