<?xml version="1.0" encoding="UTF-8"?>
<svg width="16px" height="16px" viewBox="0 0 16 16" version="1.1" xmlns="http://www.w3.org/2000/svg" xmlns:xlink="http://www.w3.org/1999/xlink">
    <!-- Generator: Sketch 46.1 (44463) - http://www.bohemiancoding.com/sketch -->
    <title>move-up</title>
    <desc>Created with Sketch.</desc>
    <defs></defs>
    <g id="Page-1" stroke="none" stroke-width="1" fill="none" fill-rule="evenodd">
        <g id="Artboard" transform="translate(-72.000000, -186.000000)">
            <g id="move-up" transform="translate(72.000000, 186.000000)">
                <rect id="bounds" fill-opacity="0" fill="#EEEEEE" x="0" y="0" width="16" height="16"></rect>
                <path d="M15,8 L9,8 L9,4 L12,4 L12,3 L11,3 L11,2 L10,2 L10,1 L9,1 L9,0 L7,0 L7,1 L6,1 L6,2 L5,2 L5,3 L4,3 L4,4 L7,4 L7,8 L1,8 L0,8 L0,9 L0,15 L0,16 L1,16 L15,16 L16,16 L16,15 L16,9 L16,8 L15,8 Z M15,15 L1,15 L1,9 L15,9 L15,15 Z" id="icon" fill="#000000" fill-rule="nonzero"></path>
            </g>
        </g>
    </g>
</svg>