<?xml version="1.0" encoding="UTF-8"?>
<svg width="16px" height="16px" viewBox="0 0 16 16" version="1.1" xmlns="http://www.w3.org/2000/svg" xmlns:xlink="http://www.w3.org/1999/xlink">
    <!-- Generator: Sketch 46.1 (44463) - http://www.bohemiancoding.com/sketch -->
    <title>move-down</title>
    <desc>Created with Sketch.</desc>
    <defs></defs>
    <g id="Page-1" stroke="none" stroke-width="1" fill="none" fill-rule="evenodd">
        <g id="Artboard" transform="translate(-136.000000, -186.000000)">
            <g id="move-down" transform="translate(136.000000, 186.000000)">
                <rect id="bounds" fill-opacity="0" fill="#EEEEEE" x="0" y="0" width="16" height="16"></rect>
                <path d="M15,0 L1,0 L0,0 L0,1 L0,7 L0,8 L1,8 L7,8 L7,12 L4,12 L4,13 L5,13 L5,14 L6,14 L6,15 L7,15 L7,16 L9,16 L9,15 L10,15 L10,14 L11,14 L11,13 L12,13 L12,12 L9,12 L9,8 L15,8 L16,8 L16,7 L16,1 L16,0 L15,0 Z M15,7 L1,7 L1,1 L15,1 L15,7 Z" id="icon" fill="#000000" fill-rule="nonzero"></path>
            </g>
        </g>
    </g>
</svg>