<?xml version="1.0" encoding="UTF-8"?>
<svg width="16px" height="16px" viewBox="0 0 16 16" version="1.1" xmlns="http://www.w3.org/2000/svg" xmlns:xlink="http://www.w3.org/1999/xlink">
    <!-- Generator: Sketch 46.1 (44463) - http://www.bohemiancoding.com/sketch -->
    <title>pc</title>
    <desc>Created with Sketch.</desc>
    <defs></defs>
    <g id="Page-1" stroke="none" stroke-width="1" fill="none" fill-rule="evenodd">
        <g id="Artboard" transform="translate(-168.000000, -538.000000)">
            <g id="pc" transform="translate(168.000000, 538.000000)">
                <rect id="bounds" fill-opacity="0" fill="#EEEEEE" x="0" y="0" width="16" height="16"></rect>
                <path d="M8,0 L15,0 L16,0 L16,1 L16,11 L16,12 L15,12 L12,12 L12,14 L11,14 L7,14 L7,15 L9,15 L9,16 L7,16 L5,16 L3,16 L3,15 L5,15 L5,14 L1,14 L0,14 L0,13 L0,6 L0,5 L1,5 L7,5 L7,0 L8,0 Z M11,13 L11,12 L11,11 L11,6 L8,6 L7,6 L1,6 L1,13 L5,13 L7,13 L11,13 Z M2,12 L2,7 L10,7 L10,12 L2,12 Z M15,11 L15,1 L8,1 L8,5 L11,5 L12,5 L12,6 L12,11 L15,11 Z M9,2 L14,2 L14,3 L9,3 L9,2 Z M13,4 L14,4 L14,5 L13,5 L13,4 Z M13,6 L14,6 L14,7 L13,7 L13,6 Z" id="icon" fill="#000000" fill-rule="nonzero"></path>
            </g>
        </g>
    </g>
</svg>