<?xml version="1.0" encoding="UTF-8"?>
<svg width="14px" height="16px" viewBox="0 0 14 16" version="1.1" xmlns="http://www.w3.org/2000/svg" xmlns:xlink="http://www.w3.org/1999/xlink">
    <!-- Generator: Sketch 46.1 (44463) - http://www.bohemiancoding.com/sketch -->
    <title>pin-2</title>
    <desc>Created with Sketch.</desc>
    <defs></defs>
    <g id="Page-1" stroke="none" stroke-width="1" fill="none" fill-rule="evenodd">
        <g id="Artboard" transform="translate(-233.000000, -266.000000)">
            <g id="pin-2" transform="translate(232.000000, 266.000000)">
                <rect id="bounds" fill-opacity="0" fill="#EEEEEE" x="0" y="0" width="16" height="16"></rect>
                <path d="M6,0 L10,0 L10,1 L6,1 L6,0 Z M10,1 L11,1 L11,2 L10,2 L10,1 Z M11,2 L12,2 L12,6 L11,6 L11,2 Z M10,6 L11,6 L11,7 L10,7 L10,6 Z M6,8 L6,7 L10,7 L10,8 L9,8 L9,13 L7,13 L7,8 L6,8 Z M5,6 L6,6 L6,7 L5,7 L5,6 Z M4,2 L5,2 L5,6 L4,6 L4,2 Z M5,1 L6,1 L6,2 L5,2 L5,1 Z M6,2 L7,2 L7,3 L6,3 L6,2 Z M4,11 L6,11 L6,12 L4,12 L4,11 Z M2,12 L4,12 L4,13 L2,13 L2,12 Z M1,13 L2,13 L2,14 L1,14 L1,13 Z M2,14 L4,14 L4,15 L2,15 L2,14 Z M4,15 L12,15 L12,16 L4,16 L4,15 Z M12,14 L14,14 L14,15 L12,15 L12,14 Z M14,13 L15,13 L15,14 L14,14 L14,13 Z M12,12 L14,12 L14,13 L12,13 L12,12 Z M10,11 L12,11 L12,12 L10,12 L10,11 Z" id="icon" fill="#000000" fill-rule="nonzero"></path>
            </g>
        </g>
    </g>
</svg>