<?xml version="1.0" encoding="UTF-8"?>
<svg width="16px" height="16px" viewBox="0 0 16 16" version="1.1" xmlns="http://www.w3.org/2000/svg" xmlns:xlink="http://www.w3.org/1999/xlink">
    <!-- Generator: Sketch 46.1 (44463) - http://www.bohemiancoding.com/sketch -->
    <title>printer</title>
    <desc>Created with Sketch.</desc>
    <defs></defs>
    <g id="Page-1" stroke="none" stroke-width="1" fill="none" fill-rule="evenodd">
        <g id="Artboard" transform="translate(-104.000000, -346.000000)">
            <g id="printer" transform="translate(104.000000, 346.000000)">
                <rect id="bounds" fill-opacity="0" fill="#EEEEEE" x="0" y="0" width="16" height="16"></rect>
                <path d="M15,3 L14,3 L14,1 L14,0 L13,0 L3,0 L2,0 L2,1 L2,3 L1,3 L1,4 L0,4 L0,9 L0,13 L2,13 L2,15 L2,16 L3,16 L13,16 L14,16 L14,13 L16,13 L16,9 L16,4 L15,4 L15,3 Z M3,1 L13,1 L13,4 L3,4 L3,1 Z M13,13 L13,15 L3,15 L3,13 L3,10 L13,10 L13,13 Z M15,6 L15,9 L15,11 L14,11 L14,9 L12,9 L2,9 L2,11 L1,11 L1,5 L2,5 L12,5 L13,5 L15,5 L15,6 Z M4,13 L6,13 L6,14 L4,14 L4,13 Z M4,11 L5,11 L5,12 L4,12 L4,11 Z M7,13 L8,13 L8,14 L7,14 L7,13 Z M9,13 L12,13 L12,14 L9,14 L9,13 Z M6,11 L9,11 L9,12 L6,12 L6,11 Z M10,11 L12,11 L12,12 L10,12 L10,11 Z M12,6 L14,6 L14,7 L12,7 L12,6 Z" id="icon" fill="#000000" fill-rule="nonzero"></path>
            </g>
        </g>
    </g>
</svg>