<?xml version="1.0" encoding="UTF-8"?>
<svg width="16px" height="16px" viewBox="0 0 16 16" version="1.1" xmlns="http://www.w3.org/2000/svg" xmlns:xlink="http://www.w3.org/1999/xlink">
    <!-- Generator: Sketch 46.1 (44463) - http://www.bohemiancoding.com/sketch -->
    <title>program</title>
    <desc>Created with Sketch.</desc>
    <defs></defs>
    <g id="Page-1" stroke="none" stroke-width="1" fill="none" fill-rule="evenodd">
        <g id="Artboard" transform="translate(-104.000000, -442.000000)">
            <g id="program" transform="translate(104.000000, 442.000000)">
                <rect id="bounds" fill-opacity="0" fill="#EEEEEE" x="0" y="0" width="16" height="16"></rect>
                <path d="M0,0 L16,0 L16,1 L0,1 L0,0 Z M0,15 L16,15 L16,16 L0,16 L0,15 Z M15,1 L16,1 L16,15 L15,15 L15,1 Z M0,1 L1,1 L1,15 L0,15 L0,1 Z M1,4 L15,4 L15,5 L1,5 L1,4 Z M9,2 L10,2 L10,3 L9,3 L9,2 Z M11,2 L12,2 L12,3 L11,3 L11,2 Z M13,2 L14,2 L14,3 L13,3 L13,2 Z" id="icon" fill="#000000"></path>
            </g>
        </g>
    </g>
</svg>