<?xml version="1.0" encoding="UTF-8"?>
<svg width="16px" height="16px" viewBox="0 0 16 16" version="1.1" xmlns="http://www.w3.org/2000/svg" xmlns:xlink="http://www.w3.org/1999/xlink">
    <!-- Generator: Sketch 46.1 (44463) - http://www.bohemiancoding.com/sketch -->
    <title>redo</title>
    <desc>Created with Sketch.</desc>
    <defs></defs>
    <g id="Page-1" stroke="none" stroke-width="1" fill="none" fill-rule="evenodd">
        <g id="Artboard" transform="translate(-40.000000, -186.000000)">
            <g id="redo" transform="translate(40.000000, 186.000000)">
                <rect id="bounds" fill-opacity="0" fill="#EEEEEE" x="0" y="0" width="16" height="16"></rect>
                <polygon id="icon" fill="#000000" fill-rule="nonzero" points="13 8 13 7 14 7 14 6 15 6 15 5 16 5 16 3 15 3 15 2 14 2 14 1 13 1 13 0 12 0 12 3 1 3 1 4 0 4 0 15 1 15 1 16 16 16 16 14 2 14 2 5 12 5 12 8"></polygon>
            </g>
        </g>
    </g>
</svg>