<?xml version="1.0" encoding="UTF-8"?>
<svg width="16px" height="16px" viewBox="0 0 16 16" version="1.1" xmlns="http://www.w3.org/2000/svg" xmlns:xlink="http://www.w3.org/1999/xlink">
    <!-- Generator: Sketch 46.1 (44463) - http://www.bohemiancoding.com/sketch -->
    <title>reload</title>
    <desc>Created with Sketch.</desc>
    <defs></defs>
    <g id="Page-1" stroke="none" stroke-width="1" fill="none" fill-rule="evenodd">
        <g id="Artboard" transform="translate(-104.000000, -218.000000)">
            <g id="reload" transform="translate(104.000000, 218.000000)">
                <rect id="bounds" fill-opacity="0" fill="#EEEEEE" x="0" y="0" width="16" height="16"></rect>
                <polygon id="icon" fill="#000000" fill-rule="nonzero" points="16 1 15 1 15 0 4 0 4 1 3 1 3 5 0 5 0 6 1 6 1 7 2 7 2 8 3 8 3 9 5 9 5 8 6 8 6 7 7 7 7 6 8 6 8 5 5 5 5 2 14 2 14 14 5 14 5 11 3 11 3 15 4 15 4 16 15 16 15 15 16 15"></polygon>
            </g>
        </g>
    </g>
</svg>