<?xml version="1.0" encoding="UTF-8"?>
<svg width="16px" height="16px" viewBox="0 0 16 16" version="1.1" xmlns="http://www.w3.org/2000/svg" xmlns:xlink="http://www.w3.org/1999/xlink">
    <!-- Generator: Sketch 46.1 (44463) - http://www.bohemiancoding.com/sketch -->
    <title>sad</title>
    <desc>Created with Sketch.</desc>
    <defs></defs>
    <g id="Page-1" stroke="none" stroke-width="1" fill="none" fill-rule="evenodd">
        <g id="Artboard" transform="translate(-136.000000, -410.000000)">
            <g id="sad" transform="translate(136.000000, 410.000000)">
                <rect id="bounds" fill-opacity="0" fill="#EEEEEE" x="0" y="0" width="16" height="16"></rect>
                <path d="M5,0 L11,0 L11,1 L5,1 L5,0 Z M11,1 L13,1 L13,2 L11,2 L11,1 Z M13,2 L14,2 L14,3 L13,3 L13,2 Z M14,3 L15,3 L15,5 L14,5 L14,3 Z M3,1 L5,1 L5,2 L3,2 L3,1 Z M2,2 L3,2 L3,3 L2,3 L2,2 Z M1,3 L2,3 L2,5 L1,5 L1,3 Z M5,16 L5,15 L11,15 L11,16 L5,16 Z M11,15 L11,14 L13,14 L13,15 L11,15 Z M13,14 L13,13 L14,13 L14,14 L13,14 Z M14,13 L14,11 L15,11 L15,13 L14,13 Z M3,15 L3,14 L5,14 L5,15 L3,15 Z M2,14 L2,13 L3,13 L3,14 L2,14 Z M1,13 L1,11 L2,11 L2,13 L1,13 Z M15,5 L16,5 L16,11 L15,11 L15,5 Z M0,5 L1,5 L1,11 L0,11 L0,5 Z M4,5 L6,5 L6,7 L4,7 L4,5 Z M10,5 L12,5 L12,7 L10,7 L10,5 Z M5,10 L6,10 L6,11 L5,11 L5,10 Z M6,9 L10,9 L10,10 L6,10 L6,9 Z M10,10 L11,10 L11,11 L10,11 L10,10 Z" id="icon" fill="#000000"></path>
            </g>
        </g>
    </g>
</svg>