<?xml version="1.0" encoding="UTF-8"?>
<svg width="16px" height="16px" viewBox="0 0 16 16" version="1.1" xmlns="http://www.w3.org/2000/svg" xmlns:xlink="http://www.w3.org/1999/xlink">
    <!-- Generator: Sketch 46.1 (44463) - http://www.bohemiancoding.com/sketch -->
    <title>save</title>
    <desc>Created with Sketch.</desc>
    <defs></defs>
    <g id="Page-1" stroke="none" stroke-width="1" fill="none" fill-rule="evenodd">
        <g id="Artboard" transform="translate(-232.000000, -346.000000)">
            <g id="save" transform="translate(232.000000, 346.000000)">
                <rect id="bounds" fill-opacity="0" fill="#EEEEEE" x="0" y="0" width="16" height="16"></rect>
                <path d="M15,15 L13,15 L13,10 L13,9 L12,9 L4,9 L3,9 L3,15 L1,15 L1,1 L4,1 L4,6 L5,6 L12,6 L12,5 L12,1 L14,1 L14,0 L1,0 L0,0 L0,15 L0,16 L1,16 L13,16 L14,16 L16,16 L16,15 L16,2 L15,2 L15,15 Z M5,1 L11,1 L11,5 L5,5 L5,1 Z M12,15 L4,15 L4,10 L12,10 L12,15 Z M14,1 L15,1 L15,2 L14,2 L14,1 Z M9,2 L10,2 L10,4 L9,4 L9,2 Z M5,11 L11,11 L11,12 L5,12 L5,11 Z M5,13 L11,13 L11,14 L5,14 L5,13 Z" id="icon" fill="#000000" fill-rule="nonzero"></path>
            </g>
        </g>
    </g>
</svg>