<?xml version="1.0" encoding="UTF-8"?>
<svg width="16px" height="16px" viewBox="0 0 16 16" version="1.1" xmlns="http://www.w3.org/2000/svg" xmlns:xlink="http://www.w3.org/1999/xlink">
    <!-- Generator: Sketch 46.1 (44463) - http://www.bohemiancoding.com/sketch -->
    <title>scale-upe</title>
    <desc>Created with Sketch.</desc>
    <defs></defs>
    <g id="Page-1" stroke="none" stroke-width="1" fill="none" fill-rule="evenodd">
        <g id="Artboard" transform="translate(-200.000000, -186.000000)">
            <g id="scale-upe" transform="translate(200.000000, 186.000000)">
                <rect id="bounds" fill-opacity="0" fill="#EEEEEE" x="0" y="0" width="16" height="16"></rect>
                <path d="M10.5,11 L9,11 L9,10 L10,10 L10,9 L11,9 L11,11 L10.5,11 Z M5.5,5 L7,5 L7,6 L6,6 L6,7 L5,7 L5,5 L5.5,5 Z M5,6 L4,6 L4,5 L3,5 L3,4 L2,4 L2,5 L1,5 L1,6 L0,6 L0,2 L0,1 L0,0 L1,0 L2,0 L6,0 L6,1 L5,1 L5,2 L4,2 L4,3 L5,3 L5,4 L6,4 L6,5 L5,5 L5,6 Z M15,10 L16,10 L16,14 L16,16 L15,16 L14,16 L10,16 L10,15 L11,15 L11,14 L12,14 L12,13 L11,13 L11,12 L10,12 L10,11 L11,11 L11,10 L12,10 L12,11 L13,11 L13,12 L14,12 L14,11 L15,11 L15,10 Z" id="icon" fill="#000000" fill-rule="nonzero"></path>
            </g>
        </g>
    </g>
</svg>