<?xml version="1.0" encoding="UTF-8"?>
<svg width="16px" height="16px" viewBox="0 0 16 16" version="1.1" xmlns="http://www.w3.org/2000/svg" xmlns:xlink="http://www.w3.org/1999/xlink">
    <!-- Generator: Sketch 46.1 (44463) - http://www.bohemiancoding.com/sketch -->
    <title>sign-left</title>
    <desc>Created with Sketch.</desc>
    <defs></defs>
    <g id="Page-1" stroke="none" stroke-width="1" fill="none" fill-rule="evenodd">
        <g id="Artboard" transform="translate(-168.000000, -266.000000)">
            <g id="sign-left" transform="translate(168.000000, 266.000000)">
                <rect id="bounds" fill-opacity="0" fill="#EEEEEE" x="0" y="0" width="16" height="16"></rect>
                <path d="M2,4 L3,4 L3,5 L2,5 L2,4 Z M2,8 L3,8 L3,9 L2,9 L2,8 Z M1,7 L2,7 L2,8 L1,8 L1,7 Z M0,6 L1,6 L1,7 L0,7 L0,6 Z M1,5 L2,5 L2,6 L1,6 L1,5 Z M11,0 L11,3 L16,3 L16,4 L16,9 L16,10 L11,10 L11,16 L7,16 L7,10 L3,10 L3,9 L15,9 L15,4 L3,4 L3,3 L7,3 L7,0 L11,0 Z M10,15 L10,11 L8,11 L8,15 L10,15 Z M8,3 L10,3 L10,1 L8,1 L8,3 Z" id="icon" fill="#000000" fill-rule="nonzero"></path>
            </g>
        </g>
    </g>
</svg>