<?xml version="1.0" encoding="UTF-8"?>
<svg width="16px" height="16px" viewBox="0 0 16 16" version="1.1" xmlns="http://www.w3.org/2000/svg" xmlns:xlink="http://www.w3.org/1999/xlink">
    <!-- Generator: Sketch 46.1 (44463) - http://www.bohemiancoding.com/sketch -->
    <title>sign-right</title>
    <desc>Created with Sketch.</desc>
    <defs></defs>
    <g id="Page-1" stroke="none" stroke-width="1" fill="none" fill-rule="evenodd">
        <g id="Artboard" transform="translate(-200.000000, -266.000000)">
            <g id="sign-right" transform="translate(200.000000, 266.000000)">
                <rect id="bounds" fill-opacity="0" fill="#EEEEEE" x="0" y="0" width="16" height="16"></rect>
                <path d="M1,4 L13,4 L13,3 L9,3 L9,0 L5,0 L5,3 L0,3 L0,4 L0,9 L0,10 L5,10 L5,16 L9,16 L9,10 L13,10 L13,9 L1,9 L1,4 Z M6,1 L8,1 L8,3 L6,3 L6,1 Z M8,15 L6,15 L6,11 L8,11 L8,15 Z M13,4 L14,4 L14,5 L13,5 L13,4 Z M13,8 L14,8 L14,9 L13,9 L13,8 Z M14,7 L15,7 L15,8 L14,8 L14,7 Z M15,6 L16,6 L16,7 L15,7 L15,6 Z M14,5 L15,5 L15,6 L14,6 L14,5 Z" id="icon" fill="#000000" fill-rule="nonzero"></path>
            </g>
        </g>
    </g>
</svg>