<?xml version="1.0" encoding="UTF-8"?>
<svg width="12px" height="16px" viewBox="0 0 12 16" version="1.1" xmlns="http://www.w3.org/2000/svg" xmlns:xlink="http://www.w3.org/1999/xlink">
    <!-- Generator: Sketch 46.1 (44463) - http://www.bohemiancoding.com/sketch -->
    <title>smartphone</title>
    <desc>Created with Sketch.</desc>
    <defs></defs>
    <g id="Page-1" stroke="none" stroke-width="1" fill="none" fill-rule="evenodd">
        <g id="Artboard" transform="translate(-42.000000, -538.000000)">
            <g id="smartphone" transform="translate(40.000000, 538.000000)">
                <rect id="bounds" fill-opacity="0" fill="#EEEEEE" x="0" y="0" width="16" height="16"></rect>
                <path d="M3,0 L2,0 L2,1 L2,15 L2,16 L3,16 L13,16 L14,16 L14,15 L14,1 L14,0 L13,0 L3,0 Z M13,15 L3,15 L3,1 L13,1 L13,15 Z M7,13 L9,13 L9,14 L7,14 L7,13 Z M12,2 L4,2 L4,12 L12,12 L12,2 Z M7,5 L6,5 L6,4 L5,4 L5,3 L6,3 L6,4 L7,4 L7,5 Z" id="icon" fill="#000000" fill-rule="nonzero"></path>
            </g>
        </g>
    </g>
</svg>