<?xml version="1.0" encoding="UTF-8"?>
<svg width="10px" height="16px" viewBox="0 0 10 16" version="1.1" xmlns="http://www.w3.org/2000/svg" xmlns:xlink="http://www.w3.org/1999/xlink">
    <!-- Generator: Sketch 46.1 (44463) - http://www.bohemiancoding.com/sketch -->
    <title>softdrink</title>
    <desc>Created with Sketch.</desc>
    <defs></defs>
    <g id="Page-1" stroke="none" stroke-width="1" fill="none" fill-rule="evenodd">
        <g id="Artboard" transform="translate(-203.000000, -410.000000)" fill="#000000">
            <g id="softdrink" transform="translate(203.000000, 410.000000)">
                <path d="M2,16 L2,15 L7.999,15 L7.999,16 L2,16 Z M9,5 L10,5 L10,6 L10,7 L10,8 L9,8 L9,15 L8,15 L8,8 L2,8 L2,15 L1,15 L1,8 L0,8 L0,7 L0,6 L0,5 L1,5 L4,5 L4,2 L4,1 L3,1 L2,1 L2,0 L3,0 L4,0 L5,0 L5,1 L5,2 L5,5 L9,5 Z M3,14 L3,9.001 L4,9.001 L4,14 L3,14 Z M1,7 L9,7 L9,6 L1,6 L1,7 Z" id="icon"></path>
            </g>
        </g>
    </g>
</svg>