<?xml version="1.0" encoding="UTF-8"?>
<svg width="16px" height="16px" viewBox="0 0 16 16" version="1.1" xmlns="http://www.w3.org/2000/svg" xmlns:xlink="http://www.w3.org/1999/xlink">
    <!-- Generator: Sketch 46.1 (44463) - http://www.bohemiancoding.com/sketch -->
    <title>stack</title>
    <desc>Created with Sketch.</desc>
    <defs></defs>
    <g id="Page-1" stroke="none" stroke-width="1" fill="none" fill-rule="evenodd">
        <g id="Artboard" transform="translate(-72.000000, -314.000000)">
            <g id="stack" transform="translate(72.000000, 314.000000)">
                <rect id="bounds" fill-opacity="0" fill="#EEEEEE" x="0" y="0" width="16" height="16"></rect>
                <path d="M5,0 L4,0 L4,1 L4,2 L3,2 L2,2 L2,3 L2,4 L1,4 L0,4 L0,5 L0,15 L0,16 L1,16 L11,16 L12,16 L12,15 L12,13 L13,13 L14,13 L14,11 L15,11 L16,11 L16,1 L16,0 L15,0 L5,0 Z M11,15 L1,15 L1,5 L11,5 L11,15 Z M13,12 L12,12 L12,5 L12,4 L11,4 L3,4 L3,3 L13,3 L13,12 Z M15,10 L14,10 L14,3 L14,2 L13,2 L5,2 L5,1 L15,1 L15,10 Z" id="icon" fill="#000000" fill-rule="nonzero"></path>
            </g>
        </g>
    </g>
</svg>