<?xml version="1.0" encoding="UTF-8"?>
<svg width="16px" height="16px" viewBox="0 0 16 16" version="1.1" xmlns="http://www.w3.org/2000/svg" xmlns:xlink="http://www.w3.org/1999/xlink">
    <!-- Generator: Sketch 46.1 (44463) - http://www.bohemiancoding.com/sketch -->
    <title>stacked</title>
    <desc>Created with Sketch.</desc>
    <defs></defs>
    <g id="Page-1" stroke="none" stroke-width="1" fill="none" fill-rule="evenodd">
        <g id="Artboard" transform="translate(-104.000000, -314.000000)">
            <g id="stacked" transform="translate(104.000000, 314.000000)">
                <rect id="bounds" fill-opacity="0" fill="#EEEEEE" x="0" y="0" width="16" height="16"></rect>
                <path d="M7,0 L6,0 L6,1 L6,2 L5,2 L4,2 L4,3 L4,4 L3,4 L2,4 L2,5 L2,6 L1,6 L0,6 L0,7 L0,15 L0,16 L1,16 L9,16 L10,16 L10,15 L10,13 L11,13 L12,13 L12,11 L13,11 L14,11 L14,9 L15,9 L16,9 L16,8 L16,1 L16,0 L15,0 L7,0 Z M9,15 L1,15 L1,7 L9,7 L9,15 Z M11,12 L10,12 L10,7 L10,6 L9,6 L3,6 L3,5 L11,5 L11,12 Z M13,10 L12,10 L12,5 L12,4 L11,4 L5,4 L5,3 L13,3 L13,8 L13,9 L13,10 Z M15,8 L14,8 L14,3 L14,2 L13,2 L7,2 L7,1 L15,1 L15,8 Z" id="icon" fill="#000000" fill-rule="nonzero"></path>
            </g>
        </g>
    </g>
</svg>