<?xml version="1.0" encoding="UTF-8"?>
<svg width="16px" height="16px" viewBox="0 0 16 16" version="1.1" xmlns="http://www.w3.org/2000/svg" xmlns:xlink="http://www.w3.org/1999/xlink">
    <!-- Generator: Sketch 46.1 (44463) - http://www.bohemiancoding.com/sketch -->
    <title>sun</title>
    <desc>Created with Sketch.</desc>
    <defs></defs>
    <g id="Page-1" stroke="none" stroke-width="1" fill="none" fill-rule="evenodd">
        <g id="Artboard" transform="translate(-136.000000, -490.000000)">
            <g id="sun" transform="translate(136.000000, 490.000000)">
                <rect id="bounds-copy" fill-opacity="0" fill="#EEEEEE" x="0" y="0" width="16" height="16"></rect>
                <path d="M12,4 L13,4 L13,6 L12,6 L12,4 Z M6,2 L10,2 L10,3 L6,3 L6,2 Z M10,3 L12,3 L12,4 L10,4 L10,3 Z M13,6 L14,6 L14,10 L13,10 L13,6 Z M12,10 L13,10 L13,12 L12,12 L12,10 Z M10,12 L12,12 L12,13 L10,13 L10,12 Z M6,13 L10,13 L10,14 L6,14 L6,13 Z M4,12 L6,12 L6,13 L4,13 L4,12 Z M3,10 L4,10 L4,12 L3,12 L3,10 Z M2,6 L3,6 L3,10 L2,10 L2,6 Z M3,4 L4,4 L4,6 L3,6 L3,4 Z M4,3 L6,3 L6,4 L4,4 L4,3 Z M8,0 L9,0 L9,1 L8,1 L8,0 Z M13,2 L14,2 L14,3 L13,3 L13,2 Z M14,1 L15,1 L15,2 L14,2 L14,1 Z M3,2 L3,3 L2,3 L2,2 L3,2 Z M2,1 L2,2 L1,2 L1,1 L2,1 Z M13,14 L13,13 L14,13 L14,14 L13,14 Z M14,15 L14,14 L15,14 L15,15 L14,15 Z M3,14 L2,14 L2,13 L3,13 L3,14 Z M2,15 L1,15 L1,14 L2,14 L2,15 Z M0,7 L1,7 L1,8 L0,8 L0,7 Z M7,15 L8,15 L8,16 L7,16 L7,15 Z M15,8 L16,8 L16,9 L15,9 L15,8 Z" id="icon" fill="#000000"></path>
            </g>
        </g>
    </g>
</svg>