<?xml version="1.0" encoding="UTF-8"?>
<svg width="14px" height="16px" viewBox="0 0 14 16" version="1.1" xmlns="http://www.w3.org/2000/svg" xmlns:xlink="http://www.w3.org/1999/xlink">
    <!-- Generator: Sketch 46.1 (44463) - http://www.bohemiancoding.com/sketch -->
    <title>trash</title>
    <desc>Created with Sketch.</desc>
    <defs></defs>
    <g id="Page-1" stroke="none" stroke-width="1" fill="none" fill-rule="evenodd">
        <g id="Artboard" transform="translate(-137.000000, -314.000000)">
            <g id="trash" transform="translate(136.000000, 314.000000)">
                <rect id="bounds" fill-opacity="0" fill="#EEEEEE" x="0" y="0" width="16" height="16"></rect>
                <path d="M2,16 L3,16 L13,16 L14,16 L14,15 L14,5 L15,5 L15,4 L15,3 L14,3 L14,4 L2,4 L2,3 L1,3 L1,5 L2,5 L2,16 Z M3,5 L13,5 L13,15 L3,15 L3,5 Z M14,3 L2,3 L2,2 L5,2 L5,0 L11,0 L11,2 L14,2 L14,3 Z M6,1 L6,2 L10,2 L10,1 L6,1 Z M5,6 L6,6 L6,14 L5,14 L5,6 Z M8,6 L9,6 L9,14 L8,14 L8,6 Z M10,6 L11,6 L11,14 L10,14 L10,6 Z" id="icon" fill="#000000" fill-rule="nonzero"></path>
            </g>
        </g>
    </g>
</svg>