<?xml version="1.0" encoding="UTF-8"?>
<svg width="16px" height="16px" viewBox="0 0 16 16" version="1.1" xmlns="http://www.w3.org/2000/svg" xmlns:xlink="http://www.w3.org/1999/xlink">
    <!-- Generator: Sketch 46.1 (44463) - http://www.bohemiancoding.com/sketch -->
    <title>tv</title>
    <desc>Created with Sketch.</desc>
    <defs></defs>
    <g id="Page-1" stroke="none" stroke-width="1" fill="none" fill-rule="evenodd">
        <g id="Artboard" transform="translate(-136.000000, -538.000000)">
            <g id="tv" transform="translate(136.000000, 538.000000)">
                <rect id="bounds" fill-opacity="0" fill="#EEEEEE" x="0" y="0" width="16" height="16"></rect>
                <path d="M10,2 L11,2 L11,3 L10,3 L10,2 Z M12,1 L12,2 L11,2 L11,1 L11,0 L12,0 L12,1 Z M5,2 L6,2 L6,3 L5,3 L5,2 Z M4,1 L5,1 L5,2 L4,2 L4,1 Z M3,0 L4,0 L4,1 L3,1 L3,0 Z M11,5 L15,5 L16,5 L16,6 L16,15 L16,16 L15,16 L1,16 L0,16 L0,15 L0,6 L0,5 L1,5 L5,5 L5,4 L6,4 L6,3 L7,3 L7,4 L9,4 L9,3 L10,3 L10,4 L11,4 L11,5 Z M15,15 L15,6 L1,6 L1,15 L15,15 Z M13,7 L14,7 L14,8 L13,8 L13,7 Z M13,9 L14,9 L14,10 L13,10 L13,9 Z M13,11 L14,11 L14,12 L13,12 L13,11 Z M13,13 L14,13 L14,14 L13,14 L13,13 Z M12,14 L12,7 L2,7 L2,14 L12,14 Z M3,8 L4,8 L4,9 L5,9 L5,10 L4,10 L4,9 L3,9 L3,8 Z" id="icon" fill="#000000" fill-rule="nonzero"></path>
            </g>
        </g>
    </g>
</svg>