<?xml version="1.0" encoding="UTF-8"?>
<svg width="16px" height="16px" viewBox="0 0 16 16" version="1.1" xmlns="http://www.w3.org/2000/svg" xmlns:xlink="http://www.w3.org/1999/xlink">
    <!-- Generator: Sketch 46.1 (44463) - http://www.bohemiancoding.com/sketch -->
    <title>umbrella</title>
    <desc>Created with Sketch.</desc>
    <defs></defs>
    <g id="Page-1" stroke="none" stroke-width="1" fill="none" fill-rule="evenodd">
        <g id="Artboard" transform="translate(-104.000000, -378.000000)">
            <g id="umbrella" transform="translate(104.000000, 378.000000)">
                <rect id="bounds" fill-opacity="0" fill="#EEEEEE" x="0" y="0" width="16" height="16"></rect>
                <path d="M11,1 L11,2 L5,2 L5,1 L7,1 L7,0 L9,0 L9,1 L11,1 Z M11,2 L13,2 L13,3 L11,3 L11,2 Z M3,2 L5,2 L5,3 L3,3 L3,2 Z M2,3 L3,3 L3,4 L2,4 L2,3 Z M1,4 L2,4 L2,6 L1,6 L1,4 Z M13,3 L14,3 L14,4 L13,4 L13,3 Z M14,4 L15,4 L15,6 L14,6 L14,4 Z M1,6 L1,9 L2,9 L2,10 L1,10 L0,10 L0,9 L0,6 L1,6 Z M15,9 L15,6 L16,6 L16,9 L16,10 L15,10 L14,10 L14,9 L15,9 Z M12,8 L14,8 L14,9 L12,9 L12,8 Z M10,9 L12,9 L12,10 L10,10 L10,9 Z M8,8 L10,8 L10,9 L9,9 L9,14 L11,14 L11,16 L8,16 L8,15 L7,15 L7,9 L6,9 L6,8 L8,8 Z M2,8 L4,8 L4,9 L2,9 L2,8 Z M4,9 L6,9 L6,10 L4,10 L4,9 Z" id="icon" fill="#000000" fill-rule="nonzero"></path>
            </g>
        </g>
    </g>
</svg>