<?xml version="1.0" encoding="UTF-8"?>
<svg width="14px" height="16px" viewBox="0 0 14 16" version="1.1" xmlns="http://www.w3.org/2000/svg" xmlns:xlink="http://www.w3.org/1999/xlink">
    <!-- Generator: Sketch 46.1 (44463) - http://www.bohemiancoding.com/sketch -->
    <title>user</title>
    <desc>Created with Sketch.</desc>
    <defs></defs>
    <g id="Page-1" stroke="none" stroke-width="1" fill="none" fill-rule="evenodd">
        <g id="Artboard" transform="translate(-74.000000, -410.000000)">
            <g id="user" transform="translate(73.000000, 410.000000)">
                <rect id="bounds" fill-opacity="0" fill="#EEEEEE" x="0" y="0" width="16" height="16"></rect>
                <path d="M6,0 L10,0 L10,1 L6,1 L6,0 Z M10,1 L11,1 L11,2 L10,2 L10,1 Z M11,2 L12,2 L12,8 L11,8 L11,2 Z M10,8 L11,8 L11,9 L10,9 L10,8 Z M5,8 L6,8 L6,9 L5,9 L5,8 Z M6,9 L10,9 L10,10 L6,10 L6,9 Z M4,2 L5,2 L5,8 L4,8 L4,2 Z M5,1 L6,1 L6,2 L5,2 L5,1 Z M6,3 L7,3 L7,5 L6,5 L6,3 Z M9,3 L10,3 L10,5 L9,5 L9,3 Z M3,10 L4,10 L4,11 L3,11 L3,10 Z M2,11 L3,11 L3,12 L2,12 L2,11 Z M1,12 L2,12 L2,16 L1,16 L1,12 Z M13,10 L13,11 L12,11 L12,10 L13,10 Z M14,11 L14,12 L13,12 L13,11 L14,11 Z M15,12 L15,16 L14,16 L14,12 L15,12 Z M2,15 L14,15 L14,16 L2,16 L2,15 Z" id="icon" fill="#000000"></path>
            </g>
        </g>
    </g>
</svg>