<svg width="33" height="32" viewBox="0 0 33 32" xmlns="http://www.w3.org/2000/svg">
    <title>
        map
    </title>
    <path d="M30.6 0H.6v32h32V0h-2zm0 14h-2v2h2v14h-26v-2h-2V14h2v-2h-2V2h10v2h2V2h14v2h2v10zm-26 12h2v2h-2v-2zm2-2h2v2h-2v-2zm2-2h2v2h-2v-2zm2-2h2v2h-2v-2zm2-2h2v2h-2v-2zm2-2h2v2h-2v-2zm2-2h2v2h-2v-2zm2-2h2v2h-2v-2zm2-2h2v2h-2v-2zm2-2h2v2h-2V8zm2-2h2v2h-2V6zm2-2h2v2h-2V4zm-22 10h2v2h-2v-2zm2 2h2v2h-2v-2zm2 2h2v2h-2v-2zm-2-6h2v2h-2v-2zm2-2h2v2h-2v-2zm2-2h2v2h-2V8zm2-2h2v2h-2V6zm2-2h2v2h-2V4zm2 2h2v2h-2V6zm2 2h2v2h-2V8zm6 2h2v2h-2v-2zm2 2h2v2h-2v-2zm0 4h-6v2h-2v6h2v2h2v2h2v-2h2v-2h2v-6h-2v-2zm-2 6h-2v-2h2v2z" fill-rule="nonzero" fill="#000"/>
</svg>
