<svg width="32" height="32" viewBox="0 0 32 32" xmlns="http://www.w3.org/2000/svg">
    <title>
        edit
    </title>
    <path d="M4 20h2v2H4v-2zm2-2h2v2H6v-2zm2-2h2v2H8v-2zm2-2h2v2h-2v-2zm2-2h2v2h-2v-2zm2-2h2v2h-2v-2zm2-2h2v2h-2V8zm2-2h2v2h-2V6zm2-2h2v2h-2V4zm2-2h2v2h-2V2zM10 26h2v2h-2v-2zm2-2h2v2h-2v-2zm2-2h2v2h-2v-2zm2-2h2v2h-2v-2zm2-2h2v2h-2v-2zm2-2h2v2h-2v-2zm2-2h2v2h-2v-2zm2-2h2v2h-2v-2zm2-2h2v2h-2v-2zM10 20h2v2h-2v-2zm-2 2h2v2H8v-2zm4-4h2v2h-2v-2zm2-2h2v2h-2v-2zm2-2h2v2h-2v-2zm2-2h2v2h-2v-2zm10-4h2v2h-2V8zm-4-8h2v2h-2V0zm2 2h2v2h-2V2zm2 2h2v2h-2V4zm2 2h2v2h-2V6zm-8 0h2v2h-2V6zm2 2h2v2h-2V8zM6 28h4v2H8v2H0v-8h2v-2h2v4h2v2z"/>
</svg>
