<svg width="32" height="32" viewBox="0 0 32 32" xmlns="http://www.w3.org/2000/svg">
    <title>
        lifebelt
    </title>
    <path d="M2 6h2v2H2V6zm2-2h2v2H4V4zm2-2h2v2H6V2zm2-2h16v2H8V0zm16 2h2v2h-2V2zm2 2h2v2h-2V4zm2 2h2v2h-2V6zM0 8h2v16H0V8zm2 16h2v2H2v-2zm2 2h2v2H4v-2zm2 2h2v2H6v-2zm2 2h16v2H8v-2zm16-2h2v2h-2v-2zm2-2h2v2h-2v-2zm2-2h2v2h-2v-2zm2-16h2v16h-2V8zM4 8h2v2H4V8zm2 2h2v2H6v-2zm2-6h2v2H8V4zm2 2h2v2h-2V6zm0 4h2v2h-2v-2zm16-2h2v2h-2V8zm-2 2h2v2h-2v-2zm-2-6h2v2h-2V4zm-2 2h2v2h-2V6zm0 4h2v2h-2v-2zm6 12h2v2h-2v-2zm-2-2h2v2h-2v-2zm-2 6h2v2h-2v-2zm-2-2h2v2h-2v-2zm0-4h2v2h-2v-2zM4 22h2v2H4v-2zm2-2h2v2H6v-2zm2 6h2v2H8v-2zm2-2h2v2h-2v-2zm0-4h2v2h-2v-2zm0-6v6H8v-8h2v2zm8-4h-6V8h8v2h-2zm4 4v-2h2v8h-2v-6zm-8 8h6v2h-8v-2h2z"/>
</svg>
