<svg width="32" height="28" viewBox="0 0 32 28" xmlns="http://www.w3.org/2000/svg">
    <title>
        diamond
    </title>
    <path d="M26 2h2v2h-2V2zm2 2h2v2h-2V4zM2 4h2v2H2V4zm2-2h2v2H4V2zM2 14h2v2H2v-2zm2 2h2v2H4v-2zm2 2h2v2H6v-2zm2 2h2v2H8v-2zm14 0h2v2h-2v-2zm2-2h2v2h-2v-2zm2-2h2v2h-2v-2zm2-2h2v2h-2v-2zM12 4V2H6V0h20v2h-6v2h-2V2h-4v2h-2zm-2 0h2v2h-2V4zm0 12h2v4h-2v-4zM20 4h2v2h-2V4zm0 12h2v4h-2v-4zm0 4v2h2v2h-2v2h-2v2h-4v-2h-2v-2h-2v-2h2v-2h2v4h4v-4h2zM30 8V6h2v8h-2v-4h-6v6h-2v-6H10v6H8v-6H2v4H0V6h2v2h6V6h2v2h12V6h2v2h6z"/>
</svg>
