<svg width="32" height="32" viewBox="0 0 32 32" xmlns="http://www.w3.org/2000/svg">
    <title>
        map-folded
    </title>
    <path d="M2 8v20h2v2H2v2H0V8h2zm0-2h2v2H2V6zm2-2h2v2H4V4zm10-2h-2v20h-2V2H8V0h6v2zM4 26h2v2H4v-2zm2-2h2v2H6v-2zm6-2h2v2h-2v-2zm2 2h2v2h-2v-2zm2 2h2v2h-2v-2zm2 2h2v2h-2v-2zm6-18v18h2v2h-2v2h-4v-2h2V10h-2V8h4v2zM6 2h2v2H6V2zm2 20h2v2H8v-2zm18 4h2v2h-2v-2zm2-2h2v2h-2v-2zm2-22V0h2v24h-2V4h-2V2h2zm-4 2h2v2h-2V4zm-2 2h2v2h-2V6zM14 2h2v2h-2V2zm2 2h2v2h-2V4zm2 2h2v2h-2V6z" fill-rule="nonzero" fill="#000"/>
</svg>
